<svg width="393" height="393" viewBox="0 0 393 393" fill="none" xmlns="http://www.w3.org/2000/svg">
<g clip-path="url(#clip0_856_204)">
<path fill-rule="evenodd" clip-rule="evenodd" d="M387.592 120.829L280.5 7.15321C276.786 3.24286 271.638 0.0195312 266.254 0.0195312H39.2961C17.6025 0.0195312 -0.00390625 19.6696 -0.00390625 41.3632V178.913C-0.00390625 189.76 8.79929 198.563 19.6461 198.563C30.5125 198.563 39.2961 189.76 39.2961 178.913V61.0132C39.2961 50.1664 48.0993 39.3195 58.9461 39.3195H235.796V119.963C235.796 141.676 253.402 157.22 275.096 157.22H353.696V178.913C353.696 189.76 362.499 198.563 373.346 198.563C384.213 198.563 392.996 189.76 392.996 178.913V134.367C392.996 129.317 391.07 124.484 387.592 120.829ZM216.146 294.77C216.146 283.903 207.343 275.12 196.496 275.12C185.649 275.12 176.846 283.903 176.846 294.77V334.07C176.846 344.916 185.649 353.72 196.496 353.72C207.343 353.72 216.146 344.916 216.146 334.07V294.77ZM255.446 275.12V353.72C255.446 375.413 237.859 393.02 216.146 393.02H176.846C155.152 393.02 137.546 375.413 137.546 353.72V275.12C137.546 253.406 155.152 235.82 176.846 235.82H216.146C237.859 235.82 255.446 253.406 255.446 275.12ZM78.5961 296.813C78.5961 285.966 69.8125 275.12 58.9461 275.12H39.2961V353.72H58.9461C69.8125 353.72 78.5961 346.96 78.5961 336.113V296.813ZM117.896 277.163V355.763C117.896 377.476 100.309 393.02 78.5961 393.02H19.6461C8.79929 393.02 -0.00390625 386.26 -0.00390625 375.413V355.763V277.163V257.513C-0.00390625 246.666 8.79929 235.82 19.6461 235.82H78.5961C100.309 235.82 117.896 255.47 117.896 277.163ZM392.996 255.98V256.491C392.996 267.338 384.213 275.12 373.346 275.12H353.696C329.841 275.12 310.938 296.382 314.946 321.004C318.071 340.34 336.227 353.72 355.799 353.72H373.346C384.213 353.72 392.996 363.014 392.996 373.88V374.391C392.996 385.238 384.213 393.02 373.346 393.02H357.076C316.027 393.02 279.36 362.994 275.469 322.122C271.009 275.256 307.735 235.82 353.696 235.82H373.346C384.213 235.82 392.996 245.114 392.996 255.98Z" fill="#2980B9"/>
</g>
<defs>
<clipPath id="clip0_856_204">
<rect width="393" height="393" fill="white"/>
</clipPath>
</defs>
</svg>
