<svg width="450" height="450" viewBox="0 0 450 450" fill="none" xmlns="http://www.w3.org/2000/svg">
<path d="M428.392 67.9245C422.185 30.0396 333.518 0 225 0C116.482 0 27.8152 30.0396 21.6086 67.9245H21.2266V72.1698V169.811V174.057V178.302V271.698V275.943V280.189V382.075H21.6086C27.8152 419.952 116.491 450 225 450C333.51 450 422.185 419.952 428.392 382.075H428.774V280.189V275.943V271.698V178.302V174.057V169.811V72.1698V67.9245H428.392Z" fill="#424A60"/>
<path d="M225 348.113C112.458 348.113 21.2266 315.798 21.2266 275.943V382.075H21.6086C27.8152 419.952 116.491 450 225 450C333.51 450 422.185 419.952 428.392 382.075H428.774V275.943C428.774 315.798 337.543 348.113 225 348.113Z" fill="#17385D"/>
<path d="M21.2266 271.697V275.943C21.2266 274.516 21.3794 273.107 21.6086 271.697H21.2266Z" fill="#17385D"/>
<path d="M428.391 271.697C428.62 273.107 428.773 274.516 428.773 275.943V271.697H428.391Z" fill="#17385D"/>
<path d="M225 246.226C112.458 246.226 21.2266 213.911 21.2266 174.057V280.189H21.6086C27.8152 318.065 116.491 348.113 225 348.113C333.51 348.113 422.185 318.065 428.392 280.189H428.774V174.057C428.774 213.911 337.543 246.226 225 246.226Z" fill="#2980B9"/>
<path d="M225 144.34C337.541 144.34 428.774 112.028 428.774 72.1698C428.774 32.3115 337.541 0 225 0C112.459 0 21.2266 32.3115 21.2266 72.1698C21.2266 112.028 112.459 144.34 225 144.34Z" fill="#D8DEFB"/>
<path d="M225 144.34C112.458 144.34 21.2266 112.025 21.2266 72.1699V178.302H21.6086C27.8152 216.178 116.491 246.227 225 246.227C333.51 246.227 422.185 216.178 428.392 178.302H428.774V72.1699C428.774 112.025 337.543 144.34 225 144.34Z" fill="#A2C2E5"/>
<path d="M21.2266 67.9238V72.1691C21.2266 70.7427 21.3794 69.3333 21.6086 67.9238H21.2266Z" fill="#A2C2E5"/>
<path d="M428.391 67.9238C428.62 69.3333 428.773 70.7427 428.773 72.1691V67.9238H428.391Z" fill="#A2C2E5"/>
</svg>
