<svg width="45" height="45" viewBox="0 0 45 45" fill="none" xmlns="http://www.w3.org/2000/svg">
<path d="M30.0028 27.34L27.3516 29.9912L38.6194 41.259L41.2706 38.6078L30.0028 27.34Z" fill="white"/>
<path d="M18.75 33.75C27.0343 33.75 33.75 27.0343 33.75 18.75C33.75 10.4657 27.0343 3.75 18.75 3.75C10.4657 3.75 3.75 10.4657 3.75 18.75C3.75 27.0343 10.4657 33.75 18.75 33.75Z" fill="white"/>
<path d="M33.0721 30.4801L30.4209 33.1313L38.5735 41.2839L41.2247 38.6327L33.0721 30.4801Z" fill="white"/>
<path d="M18.75 30.9375C25.481 30.9375 30.9375 25.481 30.9375 18.75C30.9375 12.019 25.481 6.5625 18.75 6.5625C12.019 6.5625 6.5625 12.019 6.5625 18.75C6.5625 25.481 12.019 30.9375 18.75 30.9375Z" fill="#CCCCCC"/>
<path d="M25.2192 13.3125C23.6254 11.4375 21.2817 10.3125 18.7504 10.3125C16.2192 10.3125 13.8754 11.4375 12.2817 13.3125C11.9067 13.6875 12.0004 14.3438 12.3754 14.625C12.7504 15 13.4067 14.9062 13.6879 14.5312C15.0004 13.0312 16.7817 12.1875 18.7504 12.1875C20.7192 12.1875 22.5004 13.0312 23.8129 14.5312C24.0004 14.7187 24.2817 14.9062 24.5629 14.9062C24.7504 14.9062 25.0317 14.8125 25.1254 14.7187C25.5004 14.3437 25.5004 13.6875 25.2192 13.3125Z" fill="white"/>
<path d="M30.0028 27.34L27.3516 29.9912L38.6194 41.259L41.2706 38.6078L30.0028 27.34Z" fill="#2980B9"/>
<path d="M18.75 33.75C27.0343 33.75 33.75 27.0343 33.75 18.75C33.75 10.4657 27.0343 3.75 18.75 3.75C10.4657 3.75 3.75 10.4657 3.75 18.75C3.75 27.0343 10.4657 33.75 18.75 33.75Z" fill="#2980B9"/>
<path d="M33.0721 30.4801L30.4209 33.1313L38.5735 41.2839L41.2247 38.6327L33.0721 30.4801Z" fill="#2980B9"/>
<path d="M18.75 30.9375C25.481 30.9375 30.9375 25.481 30.9375 18.75C30.9375 12.019 25.481 6.5625 18.75 6.5625C12.019 6.5625 6.5625 12.019 6.5625 18.75C6.5625 25.481 12.019 30.9375 18.75 30.9375Z" fill="#7FABDA"/>
<path d="M25.2192 13.3125C23.6254 11.4375 21.2817 10.3125 18.7504 10.3125C16.2192 10.3125 13.8754 11.4375 12.2817 13.3125C11.9067 13.6875 12.0004 14.3437 12.3754 14.625C12.7504 15 13.4067 14.9062 13.6879 14.5312C15.0004 13.0312 16.7817 12.1875 18.7504 12.1875C20.7192 12.1875 22.5004 13.0312 23.8129 14.5312C24.0004 14.7187 24.2817 14.9062 24.5629 14.9062C24.7504 14.9062 25.0317 14.8125 25.1254 14.7187C25.5004 14.3437 25.5004 13.6875 25.2192 13.3125Z" fill="#2980B9"/>
</svg>
