<svg width="364" height="361" viewBox="0 0 364 361" fill="none" xmlns="http://www.w3.org/2000/svg">
<path d="M318.502 218.105H157.735C153.943 218.105 150.152 216.601 147.118 213.592L119.06 185.765C116.027 182.757 116.027 178.244 119.06 175.236L147.118 147.409C150.152 144.401 153.943 142.896 157.735 142.896H318.502C323.052 142.896 326.085 145.905 326.085 150.417V210.584C326.085 215.096 323.052 218.105 318.502 218.105Z" fill="#2980B9"/>
<path d="M83.4167 45.125H68.25V315.875H83.4167V45.125Z" fill="#143D59"/>
<path d="M75.832 97.7715C88.3965 97.7715 98.582 87.6699 98.582 75.209C98.582 62.7481 88.3965 52.6465 75.832 52.6465C63.2676 52.6465 53.082 62.7481 53.082 75.209C53.082 87.6699 63.2676 97.7715 75.832 97.7715Z" fill="#3095D9"/>
<path d="M75.832 203.062C88.3965 203.062 98.582 192.961 98.582 180.5C98.582 168.039 88.3965 157.938 75.832 157.938C63.2676 157.938 53.082 168.039 53.082 180.5C53.082 192.961 63.2676 203.062 75.832 203.062Z" fill="#2A84BF"/>
<path d="M75.832 308.355C88.3965 308.355 98.582 298.254 98.582 285.793C98.582 273.332 88.3965 263.23 75.832 263.23C63.2676 263.23 53.082 273.332 53.082 285.793C53.082 298.254 63.2676 308.355 75.832 308.355Z" fill="#3095D9"/>
<path d="M257.835 323.396H157.735C153.943 323.396 150.152 321.892 147.118 318.883L119.06 291.056C116.027 288.048 116.027 283.535 119.06 280.527L147.118 252.7C150.152 249.692 153.943 248.188 157.735 248.188H257.835C262.385 248.188 265.418 251.196 265.418 255.708V315.875C265.418 320.388 262.385 323.396 257.835 323.396Z" fill="#99A8F4"/>
<path d="M265.419 112.812H157.735C153.943 112.812 150.152 111.308 147.118 108.299L119.06 80.4723C116.027 77.4639 116.027 72.9514 119.06 69.9431L147.118 42.116C150.152 39.1077 153.943 37.6035 157.735 37.6035H265.419C269.969 37.6035 273.002 40.6118 273.002 45.1243V105.291C273.002 109.804 269.969 112.812 265.419 112.812Z" fill="#17385D"/>
</svg>
