<svg width="75" height="99" viewBox="0 0 75 99" fill="none" xmlns="http://www.w3.org/2000/svg">
<path d="M71.8551 3.83331L14.9637 0.0075149C13.1091 -0.116004 11.5006 1.29788 11.3764 3.16189L10.9313 9.85224H3.36989C1.51183 9.85224 0 11.3722 0 13.2403V95.6119C0 97.48 1.51183 99 3.36989 99H46.9168C47.2942 99 47.6682 98.8449 47.9358 98.577L54.5096 91.997C54.5764 92.0113 54.6446 92.0227 54.7147 92.0274L65.9378 92.782C67.729 92.9009 69.4049 91.4361 69.5251 89.6277L74.9926 7.44014C75.1156 5.59549 73.6897 3.95664 71.8551 3.83331ZM48.361 94.0335V83.9468C48.361 83.68 48.5771 83.4628 48.8424 83.4628H58.8366L48.361 94.0335ZM66.643 89.4341C66.596 89.7264 66.4252 89.8766 66.1307 89.8846L57.2188 89.2852L63.3332 83.1652C63.6054 82.8928 63.7585 82.5224 63.7585 82.1362V13.2405C63.7585 11.3724 62.2467 9.85244 60.3886 9.85244H45.3699C43.5026 9.85244 43.5026 12.7565 45.3699 12.7565H60.3886C60.6542 12.7565 60.8701 12.9737 60.8701 13.2405V80.5587H48.8424C46.9844 80.5587 45.4725 82.0787 45.4725 83.9468V96.0959H3.36989C3.10454 96.0959 2.88848 95.8787 2.88848 95.6119V13.2405C2.88848 12.9737 3.10454 12.7565 3.36989 12.7565H37.6788C39.5462 12.7565 39.5462 9.85244 37.6788 9.85244H13.8262L14.2583 3.35588C14.3053 3.06335 14.4761 2.91331 14.7707 2.90537L71.6622 6.73097C71.9531 6.77821 72.1026 6.94994 72.1105 7.24615L66.643 89.4341Z" fill="black"/>
<path d="M51.5741 45.8307H12.1844C11.3867 45.8307 10.7401 46.4808 10.7401 47.2827C10.7401 48.0846 11.3867 48.7348 12.1844 48.7348H51.5741C52.3719 48.7348 53.0184 48.0846 53.0184 47.2827C53.0184 46.4808 52.3719 45.8307 51.5741 45.8307Z" fill="black"/>
<path d="M51.5741 55.9532H12.1844C11.3867 55.9532 10.7401 56.6034 10.7401 57.4053C10.7401 58.2072 11.3867 58.8573 12.1844 58.8573H51.5741C52.3719 58.8573 53.0184 58.2072 53.0184 57.4053C53.0184 56.6034 52.3719 55.9532 51.5741 55.9532Z" fill="black"/>
<path d="M10.7401 37.1602C10.7401 37.9621 11.3867 38.6122 12.1844 38.6122H51.5741C52.3719 38.6122 53.0184 37.9621 53.0184 37.1602C53.0184 36.3583 52.3719 35.7082 51.5741 35.7082H12.1844C11.3867 35.7082 10.7401 36.3583 10.7401 37.1602Z" fill="black"/>
<path d="M17.6788 27.0376C17.6788 27.8395 18.3254 28.4897 19.123 28.4897H44.6354C45.433 28.4897 46.0797 27.8395 46.0797 27.0376C46.0797 26.2357 45.433 25.5856 44.6354 25.5856H19.123C18.3254 25.5856 17.6788 26.2357 17.6788 27.0376Z" fill="black"/>
<path d="M15.5015 79.0789L13.4857 81.7744L11.1795 81.0041L11.9889 86.6832H19.0141L19.8235 81.0041L17.5173 81.7744L15.5015 79.0789ZM17.9759 85.4826H13.0271L12.6391 82.7571L13.9251 83.1875L15.5015 81.0804L17.0779 83.1875L18.3639 82.7571L17.9759 85.4826Z" fill="black"/>
<path d="M15.5015 75.8199C11.4798 75.8199 8.2081 79.1092 8.2081 83.1526C8.2081 87.196 11.4798 90.4854 15.5015 90.4854C19.5232 90.4854 22.7949 87.196 22.7949 83.1526C22.7949 79.1092 19.5232 75.8199 15.5015 75.8199ZM15.5015 89.2632C12.1502 89.2632 9.42367 86.522 9.42367 83.1526C9.42367 79.7832 12.1502 77.042 15.5015 77.042C18.8528 77.042 21.5793 79.7832 21.5793 83.1526C21.5793 86.522 18.8528 89.2632 15.5015 89.2632Z" fill="black"/>
<path d="M23.3468 77.996C23.1973 77.3284 22.8618 76.7176 22.3773 76.2304C21.8929 75.7431 21.2864 75.4056 20.6227 75.2552C19.4879 74.9972 18.4122 74.5491 17.4269 73.9236C16.2764 73.193 14.7247 73.193 13.5754 73.9236C12.5896 74.5485 11.5138 74.9972 10.3797 75.2552C9.71539 75.4056 9.10882 75.7431 8.62441 76.2304C8.14001 76.7176 7.80451 77.3284 7.655 77.9954C7.39851 79.1356 6.95362 80.2178 6.33125 81.2101C5.96901 81.7884 5.77695 82.4585 5.77695 83.1475C5.77695 83.8365 5.96901 84.5066 6.33246 85.0844C6.95422 86.0773 7.39973 87.1594 7.65621 88.299C7.80573 88.9673 8.14123 89.5774 8.62563 90.0647C9.10882 90.5513 9.71539 90.8882 10.3797 91.0398C11.515 91.2984 12.5908 91.746 13.576 92.3714C14.1504 92.7364 14.8165 92.9296 15.5015 92.9296C16.1865 92.9296 16.8526 92.7364 17.4269 92.3708C18.4128 91.746 19.4886 91.2978 20.6239 91.0392C21.2882 90.8876 21.8948 90.5507 22.378 90.0641C22.8624 89.5768 23.1979 88.9666 23.3474 88.299C23.6039 87.1588 24.0488 86.0766 24.6711 85.0844C25.034 84.5066 25.226 83.8365 25.226 83.1475C25.226 82.4585 25.034 81.7884 24.6705 81.2107C24.0488 80.2178 23.6033 79.1356 23.3468 77.996ZM23.6428 84.4326C22.9462 85.5435 22.4485 86.7541 22.161 88.0306C22.0619 88.4726 21.8401 88.8768 21.5179 89.2002C21.197 89.523 20.7953 89.7468 20.3553 89.847C19.0844 90.1368 17.881 90.6375 16.7778 91.3376C16.0169 91.8224 14.9861 91.8224 14.2239 91.3376C13.122 90.6375 11.918 90.1368 10.6471 89.847C10.2071 89.7468 9.80534 89.5236 9.48443 89.2002C9.16291 88.8768 8.94046 88.4726 8.84139 88.03C8.55391 86.7541 8.05614 85.5441 7.35962 84.432C7.11954 84.0493 6.99251 83.6048 6.99251 83.1475C6.99251 82.6902 7.11954 82.2457 7.36022 81.8624C8.05674 80.7515 8.55452 79.541 8.842 78.2644C8.94107 77.8224 9.16291 77.4183 9.48504 77.0949C9.80716 76.7714 10.2083 76.5477 10.6483 76.448C11.9186 76.1588 13.1214 75.6575 14.2251 74.9575C14.605 74.716 15.0469 74.5882 15.5015 74.5882C15.9561 74.5882 16.398 74.716 16.7791 74.9581C17.8816 75.6581 19.085 76.1594 20.3559 76.4486C20.7953 76.5483 21.197 76.7714 21.5186 77.0955C21.8401 77.4195 22.0625 77.823 22.1616 78.2656C22.4491 79.5416 22.9468 80.7515 23.6434 81.8636C23.8834 82.2457 24.0105 82.6902 24.0105 83.1475C24.0105 83.6048 23.8834 84.0493 23.6428 84.4326Z" fill="black"/>
</svg>
