<svg width="624" height="395" viewBox="0 0 624 395" fill="none" xmlns="http://www.w3.org/2000/svg">
<g clip-path="url(#clip0)">
<path d="M624 380.406H472.24V381.881H624V380.406Z" fill="#3F3D56"/>
<path d="M564.291 164.888V175.058L571.402 186.245L576.481 165.905L564.291 164.888Z" fill="#A0616A"/>
<path d="M563.275 74.3761L568.83 72.7882C568.83 72.7882 577.497 74.3761 577.497 84.546C577.497 94.7159 579.529 135.395 579.529 135.395L577.497 158.786C577.497 158.786 580.545 159.803 579.529 162.854C578.513 165.905 576.481 173.024 575.465 172.007C574.449 170.99 574.449 168.956 574.449 168.956C574.449 168.956 558.196 172.007 559.212 168.956C560.228 165.905 560.228 158.786 561.243 158.786C562.259 158.786 560.228 128.276 560.228 128.276L563.275 74.3761Z" fill="#E6E6E6"/>
<path d="M471.341 161.328L484.547 177.6L500.801 196.923L505.88 173.532L496.799 172.105L487.595 158.277L471.341 161.328Z" fill="#A0616A"/>
<path d="M504.356 155.735C504.356 155.735 489.118 163.871 499.277 218.788L502.324 273.705L504.356 364.217H524.673L528.736 274.722L540.926 217.771L560.228 268.621L553.117 359.132L580.545 363.2L589.687 261.502L573.434 186.245L561.244 164.888L558.704 159.295L504.356 155.735Z" fill="#2F2E41"/>
<path d="M507.403 361.166L504.356 370.319C504.356 370.319 500.293 386.591 514.514 384.557C528.736 382.523 523.657 373.37 523.657 373.37L522.641 361.166H507.403Z" fill="#2F2E41"/>
<path d="M554.133 358.115C554.133 358.115 551.085 368.285 551.085 373.37C551.085 378.455 553.117 380.668 553.117 380.668C553.117 380.668 611.02 384.557 610.004 379.472C608.988 374.387 602.893 372.353 602.893 372.353L588.671 369.302L578.513 361.166L558.196 356.081L554.133 358.115Z" fill="#2F2E41"/>
<path d="M530.768 48.9514C541.428 48.9514 550.069 40.3003 550.069 29.6287C550.069 18.957 541.428 10.3059 530.768 10.3059C520.108 10.3059 511.467 18.957 511.467 29.6287C511.467 40.3003 520.108 48.9514 530.768 48.9514Z" fill="#A0616A"/>
<path d="M544.99 37.7642L548.037 66.2401L540.927 79.4609L523.657 60.1385L521.625 43.8665L544.99 37.7642Z" fill="#A0616A"/>
<path d="M538.895 67.2572L522.962 54.5732L519.594 59.1213L494.197 69.2911L495.213 114.039C495.213 114.039 496.229 151.667 502.324 155.735L499.784 159.294L560.228 161.837V134.378L573.434 75.3931L550.069 62.1723L547.161 58.0549L538.895 67.2572Z" fill="#E6E6E6"/>
<path d="M498.261 71.3251L496.781 68.2565L493.182 69.2912C493.182 69.2912 486.071 72.3421 480.991 85.5629C475.912 98.7837 461.69 128.276 461.69 128.276C461.69 128.276 457.627 133.361 460.674 138.446C463.722 143.531 466.769 154.718 466.769 154.718C466.769 154.718 463.722 153.701 465.754 157.769C467.785 161.837 467.785 165.905 473.88 164.888C479.976 163.871 492.166 160.82 491.15 157.769C490.134 154.718 489.118 149.633 487.087 149.633C485.055 149.633 482.007 134.378 482.007 134.378L484.039 126.242L499.277 107.937L498.261 71.3251Z" fill="#E6E6E6"/>
<path d="M532.8 15.3909C532.8 15.3909 529.752 15.3909 529.752 14.3739C529.752 14.3739 519.127 14.0492 514.789 18.788C510.451 23.5267 511.467 16.4078 511.467 16.4078C511.467 16.4078 500.293 11.3229 509.435 6.23795L510.451 7.25494C510.451 7.25494 512.483 4.20397 519.594 3.18699L518.578 2.17C518.578 2.17 518.578 1.15302 523.657 1.15302C528.736 1.15302 541.942 -3.93192 542.958 7.25494C542.958 7.25494 551.085 4.20398 551.085 14.3738C551.085 24.5437 550.069 29.6287 550.069 29.6287C550.069 29.6287 548.038 24.5437 543.974 27.5947C539.911 30.6456 532.8 15.3909 532.8 15.3909Z" fill="#2F2E41"/>
<path d="M78.4592 349.255C121.791 349.255 156.918 345.621 156.918 341.138C156.918 336.655 121.791 333.022 78.4592 333.022C35.1274 333.022 0 336.655 0 341.138C0 345.621 35.1274 349.255 78.4592 349.255Z" fill="#E6E6E6"/>
<path d="M126.058 222.832H30.8606V341.176H126.058V222.832Z" fill="#E6E6E6"/>
<path d="M112.613 264.162H44.6152V267.304H112.613V264.162Z" fill="white"/>
<path d="M112.613 275.159H44.6152V278.3H112.613V275.159Z" fill="white"/>
<path d="M112.613 286.155H44.6152V289.297H112.613V286.155Z" fill="white"/>
<path d="M112.613 297.152H44.6152V300.294H112.613V297.152Z" fill="white"/>
<path d="M97.1379 173.667C97.1336 178.158 95.5108 182.496 92.5676 185.884C89.6244 189.273 85.5586 191.485 81.1171 192.113C76.6757 192.741 72.157 191.743 68.3914 189.304C64.6258 186.864 61.8661 183.145 60.6195 178.832C59.3729 174.518 59.7231 169.899 61.6058 165.823C63.4884 161.747 66.777 158.488 70.8674 156.645C74.9577 154.802 79.575 154.499 83.8709 155.791C88.1667 157.083 91.8526 159.884 94.2511 163.678C96.1375 166.668 97.1384 170.131 97.1379 173.667Z" fill="#E6E6E6"/>
<path d="M94.2511 163.678L75.8647 182.082C74.7091 180.291 68.271 171.967 68.271 171.967C69.0961 171.132 69.9765 170.354 70.9064 169.638L76.245 176.764L92.098 160.894C92.902 161.752 93.6229 162.684 94.2511 163.678Z" fill="white"/>
<path d="M332.338 344.493C375.67 344.493 410.797 340.859 410.797 336.376C410.797 331.894 375.67 328.26 332.338 328.26C289.006 328.26 253.879 331.894 253.879 336.376C253.879 340.859 289.006 344.493 332.338 344.493Z" fill="#E6E6E6"/>
<path d="M379.936 218.071H284.739V336.415H379.936V218.071Z" fill="#E6E6E6"/>
<path d="M366.492 283.948H298.494V287.09H366.492V283.948Z" fill="white"/>
<path d="M366.492 294.945H298.494V298.087H366.492V294.945Z" fill="white"/>
<path d="M366.492 305.942H298.494V309.083H366.492V305.942Z" fill="white"/>
<path d="M366.492 316.938H298.494V320.08H366.492V316.938Z" fill="white"/>
<path d="M319.325 260.193H297.72C296.246 251.66 296.246 242.938 297.72 234.405H319.325C316.891 242.828 316.891 251.77 319.325 260.193Z" fill="white"/>
<path d="M368.061 236.82H328.308V239.438H368.061V236.82Z" fill="white"/>
<path d="M368.061 246.246H328.308V248.864H368.061V246.246Z" fill="white"/>
<path d="M368.061 255.672H328.308V258.29H368.061V255.672Z" fill="white"/>
<path d="M368.061 265.097H328.308V267.715H368.061V265.097Z" fill="white"/>
<path d="M351.016 169.519C351.012 174.01 349.389 178.348 346.446 181.737C343.503 185.125 339.437 187.337 334.996 187.965C330.554 188.593 326.036 187.596 322.27 185.156C318.504 182.716 315.745 178.997 314.498 174.684C313.251 170.37 313.602 165.751 315.484 161.675C317.367 157.599 320.655 154.34 324.746 152.497C328.836 150.654 333.454 150.351 337.749 151.643C342.045 152.935 345.731 155.736 348.13 159.53C350.016 162.52 351.017 165.983 351.016 169.519Z" fill="#E6E6E6"/>
<path d="M348.13 159.53L329.743 177.934C328.587 176.143 322.149 167.819 322.149 167.819C322.974 166.984 323.855 166.206 324.785 165.49L330.123 172.616L345.976 156.746C346.78 157.604 347.501 158.536 348.13 159.53Z" fill="white"/>
<path d="M206.852 395C257.635 395 298.804 390.741 298.804 385.488C298.804 380.234 257.635 375.975 206.852 375.975C156.068 375.975 114.899 380.234 114.899 385.488C114.899 390.741 156.068 395 206.852 395Z" fill="#3F3D56"/>
<path d="M262.023 248.939H150.454V387.636H262.023V248.939Z" fill="#6C63FF"/>
<path d="M246.085 278.397H166.393V282.079H246.085V278.397Z" fill="white"/>
<path d="M246.085 291.284H166.393V294.967H246.085V291.284Z" fill="white"/>
<path d="M246.085 304.172H166.393V307.854H246.085V304.172Z" fill="white"/>
<path d="M246.085 317.06H166.393V320.742H246.085V317.06Z" fill="white"/>
<path d="M246.085 329.948H166.393V333.63H246.085V329.948Z" fill="white"/>
<path d="M227.081 343.449H185.396V358.178H227.081V343.449Z" fill="white"/>
<path d="M234.632 189.341C234.626 196.089 232.187 202.608 227.764 207.701C223.342 212.793 217.232 216.116 210.557 217.06C203.883 218.004 197.093 216.505 191.434 212.838C185.775 209.172 181.628 203.584 179.755 197.102C177.882 190.62 178.408 183.678 181.237 177.553C184.066 171.429 189.008 166.531 195.155 163.762C201.301 160.992 208.24 160.537 214.696 162.478C221.151 164.42 226.69 168.628 230.294 174.33C233.129 178.823 234.633 184.028 234.632 189.341Z" fill="#6C63FF"/>
<path d="M230.294 174.33L202.664 201.986C200.928 199.295 191.253 186.787 191.253 186.787C192.493 185.532 193.816 184.363 195.213 183.287L203.236 193.996L227.059 170.146C228.267 171.435 229.35 172.837 230.294 174.33Z" fill="white"/>
</g>
<defs>
<clipPath id="clip0">
<rect width="624" height="395" fill="white"/>
</clipPath>
</defs>
</svg>
