<svg width="1797" height="385" viewBox="0 0 1797 385" fill="none" xmlns="http://www.w3.org/2000/svg">
<rect width="1797" height="385" fill="#66CE8A"/>
<path d="M1692 198.25C1692 268.668 1634.92 325.75 1564.5 325.75C1494.08 325.75 1437 268.668 1437 198.25C1437 127.834 1494.08 70.75 1564.5 70.75C1634.92 70.75 1692 127.834 1692 198.25Z" fill="#27AE60"/>
<path d="M1692 185.5C1692 255.918 1634.92 313 1564.5 313C1494.08 313 1437 255.918 1437 185.5C1437 115.084 1494.08 58 1564.5 58C1634.92 58 1692 115.084 1692 185.5Z" fill="#2ECC71"/>
<path d="M1615.5 147.25L1539 223.75L1507.12 191.875L1480.03 218.65L1511.91 250.525L1537.41 276.025L1539 277.299L1642.59 174.025L1615.5 147.25Z" fill="#27AE60"/>
<path d="M1615.5 134.5L1539 211L1507.12 179.125L1480.03 205.9L1511.91 237.775L1537.41 263.275L1539 264.549L1642.59 161.275L1615.5 134.5Z" fill="#ECF0F1"/>
</svg>
