<svg width="92" height="83" viewBox="0 0 92 83" fill="none" xmlns="http://www.w3.org/2000/svg">
<path d="M74.8843 25.8885C74.8843 25.451 74.8843 25.0135 74.8843 24.5604C74.8265 18.784 72.788 13.2268 69.1484 8.92409C65.5089 4.62134 60.5165 1.8664 55.1013 1.17248C49.6861 0.478568 44.2174 1.89299 39.7138 5.15227C35.2103 8.41155 31.979 13.2934 30.622 18.8885C29.1975 17.0183 27.2312 15.6969 25.0268 15.1284C22.8224 14.5599 20.5025 14.776 18.4256 15.7432C16.3487 16.7105 14.6304 18.3751 13.5361 20.48C12.4418 22.5848 12.0324 25.0126 12.3712 27.3885C8.68191 29.1495 5.67365 32.1959 3.84732 36.0202C2.021 39.8445 1.48684 44.2159 2.3338 48.4066C3.18076 52.5972 5.35772 56.3541 8.50215 59.0517C11.6466 61.7493 15.5687 63.2247 19.6154 63.2322H72.7302C77.2175 63.1991 81.5255 61.3627 84.7832 58.0943C88.0408 54.8259 90.005 50.3694 90.2786 45.626C90.5523 40.8825 89.1149 36.206 86.2571 32.5419C83.3993 28.8779 79.3344 26.4998 74.8843 25.8885V25.8885Z" fill="#99A8F4" stroke="#FCFCFC" stroke-width="2" stroke-linecap="round" stroke-linejoin="round"/>
<path opacity="0.2" d="M72.7304 53.8572H19.6157C15.6928 53.8541 11.882 52.4714 8.78165 49.9261C5.68126 47.3809 3.46687 43.8172 2.48616 39.7947C1.81091 42.5643 1.74296 45.4608 2.28751 48.2624C2.83205 51.0641 3.97466 53.6967 5.62786 55.9587C7.28106 58.2207 9.40103 60.0521 11.8255 61.3128C14.25 62.5736 16.9147 63.2301 19.6157 63.2322H72.7304C75.4314 63.2301 78.0961 62.5736 80.5206 61.3128C82.945 60.0521 85.065 58.2207 86.7182 55.9587C88.3714 53.6967 89.514 51.0641 90.0586 48.2624C90.6031 45.4608 90.5352 42.5643 89.8599 39.7947C88.8792 43.8172 86.6648 47.3809 83.5644 49.9261C80.464 52.4714 76.6533 53.8541 72.7304 53.8572V53.8572Z" fill="#FCFCFC"/>
<path d="M52.0747 26.6385C51.7469 27.4757 51.1969 28.1943 50.4913 28.7073C49.7857 29.2203 48.9548 29.5056 48.0992 29.5288C47.2436 29.5519 46.4001 29.3119 45.6707 28.8377C44.9413 28.3636 44.3573 27.6757 43.9895 26.8572" stroke="#FCFCFC" stroke-width="2" stroke-linecap="round" stroke-linejoin="round"/>
<path d="M28.4682 26.6385C28.1403 27.4757 27.5903 28.1943 26.8847 28.7073C26.1791 29.2203 25.3482 29.5056 24.4926 29.5288C23.6371 29.5519 22.7935 29.3119 22.0641 28.8377C21.3347 28.3636 20.7507 27.6757 20.3829 26.8572" stroke="#FCFCFC" stroke-width="2" stroke-linecap="round" stroke-linejoin="round"/>
<path d="M49.0353 37.0135C49.3263 37.0477 49.6048 37.1571 49.8464 37.3321C50.088 37.5071 50.2853 37.7423 50.4209 38.0171C50.5564 38.2919 50.6261 38.5977 50.6238 38.9077C50.6214 39.2177 50.5471 39.5223 50.4075 39.7947C49.2734 42.6316 47.3944 45.0642 44.9935 46.8036C42.5926 48.5429 39.7708 49.516 36.8632 49.6072C33.9684 49.5187 31.1579 48.5552 28.7633 46.8304C26.3687 45.1056 24.4899 42.6915 23.3484 39.8729C23.2093 39.5993 23.1354 39.2938 23.1332 38.9831C23.131 38.6724 23.2006 38.3658 23.3359 38.09C23.4712 37.8143 23.6681 37.5778 23.9094 37.401C24.1507 37.2243 24.4292 37.1127 24.7206 37.076L49.0353 37.0135Z" fill="#FCFCFC" stroke="#FCFCFC" stroke-width="2" stroke-linecap="round" stroke-linejoin="round"/>
<g filter="url(#filter0_d_965_301)">
<path d="M81.1845 48.8572C80.4827 49.5162 79.5773 49.8801 78.6394 49.8801C77.7015 49.8801 76.7961 49.5162 76.0943 48.8572L72.7304 45.8729V70.2635C72.7304 71.2995 72.3418 72.2931 71.6501 73.0256C70.9583 73.7582 70.0201 74.1697 69.0419 74.1697C68.0636 74.1697 67.1254 73.7582 66.4337 73.0256C65.742 72.2931 65.3534 71.2995 65.3534 70.2635V45.8729L61.9894 48.8885C61.2877 49.5475 60.3822 49.9114 59.4443 49.9114C58.5064 49.9114 57.601 49.5475 56.8993 48.8885C56.5274 48.5093 56.2349 48.0517 56.0405 47.5452C55.8462 47.0388 55.7544 46.4948 55.7711 45.9484C55.7878 45.402 55.9126 44.8654 56.1374 44.3733C56.3622 43.8812 56.6821 43.4446 57.0763 43.0916L66.6665 34.4979C67.3325 33.9009 68.1767 33.5734 69.0493 33.5734C69.9218 33.5734 70.766 33.9009 71.432 34.4979L81.0222 43.0916C81.4107 43.4455 81.7253 43.8813 81.9459 44.3711C82.1665 44.8609 82.2884 45.3941 82.3036 45.9365C82.3189 46.479 82.2273 47.0189 82.0346 47.5217C81.8419 48.0246 81.5524 48.4794 81.1845 48.8572V48.8572Z" fill="#494949"/>
<path d="M81.1845 48.8572C80.4827 49.5162 79.5773 49.8801 78.6394 49.8801C77.7015 49.8801 76.7961 49.5162 76.0943 48.8572L72.7304 45.8729V70.2635C72.7304 71.2995 72.3418 72.2931 71.6501 73.0256C70.9583 73.7582 70.0201 74.1697 69.0419 74.1697C68.0636 74.1697 67.1254 73.7582 66.4337 73.0256C65.742 72.2931 65.3534 71.2995 65.3534 70.2635V45.8729L61.9894 48.8885C61.2877 49.5475 60.3822 49.9114 59.4443 49.9114C58.5064 49.9114 57.601 49.5475 56.8993 48.8885C56.5274 48.5093 56.2349 48.0517 56.0405 47.5452C55.8462 47.0388 55.7544 46.4948 55.7711 45.9484C55.7878 45.402 55.9126 44.8654 56.1374 44.3733C56.3622 43.8812 56.6821 43.4446 57.0763 43.0916L66.6665 34.4979C67.3325 33.9009 68.1767 33.5734 69.0493 33.5734C69.9218 33.5734 70.766 33.9009 71.432 34.4979L81.0222 43.0916C81.4107 43.4455 81.7253 43.8813 81.9459 44.3711C82.1665 44.8609 82.2884 45.3941 82.3036 45.9365C82.3189 46.479 82.2273 47.0189 82.0346 47.5217C81.8419 48.0246 81.5524 48.4794 81.1845 48.8572V48.8572Z" stroke="#FCFCFC" stroke-width="2" stroke-linecap="round" stroke-linejoin="round"/>
</g>
<defs>
<filter id="filter0_d_965_301" x="50.7692" y="32.5734" width="36.5361" height="50.5963" filterUnits="userSpaceOnUse" color-interpolation-filters="sRGB">
<feFlood flood-opacity="0" result="BackgroundImageFix"/>
<feColorMatrix in="SourceAlpha" type="matrix" values="0 0 0 0 0 0 0 0 0 0 0 0 0 0 0 0 0 0 127 0" result="hardAlpha"/>
<feOffset dy="4"/>
<feGaussianBlur stdDeviation="2"/>
<feComposite in2="hardAlpha" operator="out"/>
<feColorMatrix type="matrix" values="0 0 0 0 0 0 0 0 0 0 0 0 0 0 0 0 0 0 0.25 0"/>
<feBlend mode="normal" in2="BackgroundImageFix" result="effect1_dropShadow_965_301"/>
<feBlend mode="normal" in="SourceGraphic" in2="effect1_dropShadow_965_301" result="shape"/>
</filter>
</defs>
</svg>
