<svg width="1797" height="385" viewBox="0 0 1797 385" fill="none" xmlns="http://www.w3.org/2000/svg">
<rect width="1797" height="385" fill="#99A8F4"/>
<path fill-rule="evenodd" clip-rule="evenodd" d="M1606.78 87.0049H1460V192.005H1481V108.005H1586V171.005H1649V192.005H1670V154.604L1606.78 87.0049ZM1554.5 244.505V265.505C1554.5 271.301 1559.21 276.005 1565 276.005C1570.8 276.005 1575.5 271.301 1575.5 265.505V244.505C1575.5 238.709 1570.8 234.005 1565 234.005C1559.21 234.005 1554.5 238.709 1554.5 244.505ZM1533.5 276.005V234.005C1533.5 222.402 1542.9 213.005 1554.5 213.005H1575.5C1587.09 213.005 1596.5 222.402 1596.5 234.005V276.005C1596.5 287.607 1587.09 297.005 1575.5 297.005H1554.5C1542.9 297.005 1533.5 287.607 1533.5 276.005ZM1502 245.607C1502 239.801 1497.3 234.005 1491.5 234.005H1481V276.005H1491.5C1497.3 276.005 1502 272.403 1502 266.607V245.607ZM1523 244.505V265.505C1523 282.903 1508.9 297.005 1491.5 297.005H1460V277.107V235.107V213.005H1491.5C1508.83 213.005 1523 227.18 1523 244.505ZM1649 213.005H1670V234.005H1649C1637.4 234.005 1628 243.402 1628 255.005C1628 266.597 1637.4 276.005 1649 276.005H1670V297.005H1649C1625.81 297.005 1607 278.199 1607 255.005C1607 231.81 1625.81 213.005 1649 213.005Z" fill="#E6E7E8"/>
</svg>
