<svg width="1797" height="385" viewBox="0 0 1797 385" fill="none" xmlns="http://www.w3.org/2000/svg">
<rect width="1797" height="385" rx="4" fill="#99A8F4"/>
<path d="M1766.86 70.747V340.112C1766.86 346.916 1764.15 353.441 1759.34 358.251C1754.52 363.063 1747.99 365.765 1741.17 365.765H1445.78C1440.84 365.765 1436 364.335 1431.85 361.649C1427.7 358.964 1424.42 355.136 1422.41 350.63C1420.89 347.331 1420.1 343.743 1420.09 340.112V70.747C1420.09 63.9432 1422.8 57.4181 1427.62 52.6071C1432.43 47.7961 1438.97 45.0933 1445.78 45.0933H1741.17C1744.81 45.0964 1748.4 45.884 1751.7 47.4021C1756.22 49.4175 1760.05 52.6941 1762.74 56.8365C1765.43 60.9789 1766.86 65.81 1766.86 70.747Z" fill="#E6E7E8"/>
<path d="M1753.81 57.9396V327.713C1753.81 334.527 1751.11 341.062 1746.29 345.88C1741.48 350.699 1734.95 353.405 1728.14 353.405H1432.93C1429.3 353.402 1425.71 352.613 1422.4 351.093C1420.88 347.789 1420.1 344.196 1420.09 340.559V70.7859C1420.09 63.9718 1422.8 57.4368 1427.61 52.6185C1432.43 47.8002 1438.96 45.0933 1445.76 45.0933H1740.98C1744.61 45.0964 1748.2 45.8852 1751.5 47.4056C1753.02 50.7094 1753.81 54.3027 1753.81 57.9396Z" fill="#D8D7DA"/>
<path d="M1741.45 44.7499V70.4998H1394V44.7499C1394 37.9206 1396.71 31.371 1401.54 26.542C1406.36 21.7129 1412.91 19 1419.74 19H1715.71C1722.54 19 1729.09 21.7129 1733.91 26.542C1738.74 31.371 1741.45 37.9206 1741.45 44.7499Z" fill="#17385E"/>
<path d="M1741.45 70.4998V314.658C1741.45 321.474 1738.74 328.011 1733.91 332.831C1729.09 337.651 1722.54 340.359 1715.71 340.359H1419.74C1412.91 340.359 1406.36 337.651 1401.54 332.831C1396.71 328.011 1394 321.474 1394 314.658V70.4998H1741.45Z" fill="#E6E7E8"/>
<path d="M1702.51 122H1458.35C1451.25 122 1445.5 127.759 1445.5 134.863V302.089C1445.5 309.193 1451.25 314.952 1458.35 314.952H1702.51C1709.61 314.952 1715.36 309.193 1715.36 302.089V134.863C1715.36 127.759 1709.61 122 1702.51 122Z" fill="#D8D7DA"/>
<path d="M1689.46 108.953H1445.3C1438.21 108.953 1432.45 114.712 1432.45 121.817V289.042C1432.45 296.147 1438.21 301.906 1445.3 301.906H1689.46C1696.56 301.906 1702.31 296.147 1702.31 289.042V121.817C1702.31 114.712 1696.56 108.953 1689.46 108.953Z" fill="#17385E"/>
<path d="M1509.64 192.356H1496.86V218.156H1474.37L1496.41 162.505L1484.55 157.706L1459 222.206C1458.62 223.186 1458.47 224.246 1458.58 225.295C1458.69 226.344 1459.06 227.348 1459.64 228.222C1460.23 229.096 1461.02 229.81 1461.94 230.304C1462.86 230.799 1463.89 231.057 1464.94 231.056H1496.86V250.406H1509.64V231.056H1522.41V218.156H1509.64V192.356Z" fill="#A2C2E5"/>
<path d="M1664 192.356H1651.09V218.156H1628.35L1650.63 162.505L1638.64 157.706L1612.82 222.206C1612.43 223.186 1612.28 224.246 1612.4 225.295C1612.51 226.344 1612.88 227.348 1613.47 228.222C1614.06 229.096 1614.86 229.81 1615.79 230.304C1616.72 230.799 1617.76 231.057 1618.82 231.056H1651.09V250.406H1664V231.056H1676.91V218.156H1664V192.356Z" fill="#A2C2E5"/>
<path d="M1567.73 160.453C1559.17 160.463 1550.97 163.851 1544.92 169.874C1538.87 175.897 1535.46 184.062 1535.45 192.579V218.28C1535.45 226.8 1538.85 234.972 1544.91 240.996C1550.96 247.021 1559.17 250.406 1567.73 250.406C1576.29 250.406 1584.49 247.021 1590.55 240.996C1596.6 234.972 1600 226.8 1600 218.28V192.579C1599.99 184.062 1596.59 175.897 1590.54 169.874C1584.49 163.851 1576.28 160.463 1567.73 160.453ZM1587.09 218.28C1587.09 223.392 1585.05 228.295 1581.42 231.91C1577.79 235.524 1572.86 237.555 1567.73 237.555C1562.59 237.555 1557.67 235.524 1554.03 231.91C1550.4 228.295 1548.36 223.392 1548.36 218.28V192.579C1548.36 187.467 1550.4 182.564 1554.03 178.949C1557.67 175.334 1562.59 173.303 1567.73 173.303C1572.86 173.303 1577.79 175.334 1581.42 178.949C1585.05 182.564 1587.09 187.467 1587.09 192.579V218.28Z" fill="#A2C2E5"/>
<path d="M1426.27 38.2266H1413.23V51.2732H1426.27V38.2266Z" fill="#A2C2E5"/>
<path d="M1452.37 38.2266H1439.32V51.2732H1452.37V38.2266Z" fill="#A2C2E5"/>
<path d="M1477.77 38.2266H1464.73V51.2732H1477.77V38.2266Z" fill="#A2C2E5"/>
</svg>
