<svg width="1176" height="306" viewBox="0 0 1176 306" fill="none" xmlns="http://www.w3.org/2000/svg">
<circle cx="474.483" cy="152.322" r="16.7816" fill="white"/>
<rect x="404" y="8.00098" width="33.5632" height="292" rx="16.7816" fill="white"/>
<rect x="404" y="300" width="33.5632" height="134.253" rx="16.7816" transform="rotate(-90 404 300)" fill="white"/>
<rect x="404" y="41.5632" width="33.5632" height="134.253" rx="16.7816" transform="rotate(-90 404 41.5632)" fill="white"/>
<rect x="828" y="8" width="33.5632" height="292" rx="16.7816" fill="white"/>
<rect x="828" y="300" width="33.5632" height="134.253" rx="16.7816" transform="rotate(-90 828 300)" fill="white"/>
<rect y="6.59497" width="33.7494" height="293.62" rx="16.8747" fill="white"/>
<rect x="27.1064" y="191.784" width="33.7494" height="230.618" rx="16.8747" transform="rotate(-137.045 27.1064 191.784)" fill="white"/>
<rect x="93.627" y="190.193" width="33.7494" height="129.482" rx="16.8747" transform="rotate(-26.6722 93.627 190.193)" fill="white"/>
<circle cx="93.4948" cy="161.626" r="16.8747" fill="white"/>
<circle cx="584.573" cy="240.823" r="16.4045" transform="rotate(-180 584.573 240.823)" fill="white"/>
<rect x="601.013" y="214.448" width="32.8439" height="186.507" rx="16.422" transform="rotate(-180 601.013 214.448)" fill="white"/>
<path d="M573.002 53.417C566.827 45.5542 568.147 34.0641 576.714 28.9085C593.371 18.8832 611.918 12.2535 631.283 9.47759C656.642 5.84239 682.512 8.9438 706.293 18.4703C730.074 27.9968 750.93 43.6131 766.766 63.7506C782.602 83.8882 792.86 107.838 796.511 133.195C800.162 158.552 797.076 184.423 787.564 208.21C778.052 231.997 762.449 252.862 742.321 268.711C722.193 284.559 698.249 294.832 672.895 298.498C653.533 301.298 633.869 300.17 615.06 295.251C605.387 292.721 600.879 282.07 604.585 272.785V272.785C608.292 263.499 618.818 259.138 628.586 261.27C641.392 264.065 654.644 264.555 667.713 262.665C686.78 259.908 704.786 252.183 719.923 240.264C735.059 228.346 746.793 212.655 753.947 194.767C761.1 176.879 763.42 157.423 760.675 138.354C757.929 119.286 750.215 101.275 738.306 86.1312C726.397 70.9874 710.713 59.2437 692.829 52.0796C674.945 44.9155 655.491 42.5832 636.421 45.3169C623.349 47.1907 610.774 51.3993 599.276 57.6937C590.506 62.4948 579.178 61.2798 573.002 53.417V53.417Z" fill="white"/>
<rect x="1043" y="213.471" width="37.2369" height="129.482" rx="18.6185" transform="rotate(-90 1043 213.471)" fill="white"/>
<path d="M1147.08 243.777C1154.59 248.93 1157.06 259.084 1151.39 266.164C1140.31 280.006 1125.88 290.252 1109.65 295.592C1088.59 302.521 1065.97 300.709 1046.03 290.5C1026.1 280.291 1010.25 262.388 1001.45 240.168C992.659 217.949 991.538 192.947 998.299 169.878C1005.06 146.809 1019.24 127.266 1038.16 114.935C1057.08 102.604 1079.43 98.3359 1101.01 102.936C1122.59 107.537 1141.89 120.688 1155.28 139.909C1165.48 154.536 1171.71 171.908 1173.44 190.035C1174.34 199.505 1165.98 206.692 1156.5 205.969V205.969C1147.14 205.255 1140.3 197.032 1138.55 187.804C1136.84 178.82 1133.32 170.299 1128.17 162.908C1119.87 150.991 1107.9 142.837 1094.52 139.985C1081.14 137.133 1067.28 139.779 1055.55 147.424C1043.82 155.069 1035.03 167.186 1030.84 181.489C1026.65 195.792 1027.34 211.293 1032.8 225.069C1038.25 238.845 1048.08 249.945 1060.44 256.274C1072.79 262.604 1086.82 263.727 1099.88 259.431C1107.13 257.044 1113.81 253.076 1119.54 247.832C1127.1 240.919 1138.6 237.956 1147.08 243.777V243.777Z" fill="white"/>
<path d="M206 114.655C206 105.457 213.457 98 222.655 98V98C231.854 98 239.31 105.457 239.31 114.655V283.549C239.31 292.748 231.854 300.204 222.655 300.204V300.204C213.457 300.204 206 292.748 206 283.549V114.655Z" fill="white"/>
<path d="M340.689 183.045C340.689 173.847 348.146 166.39 357.345 166.39V166.39C366.543 166.39 374 173.847 374 183.045V243.345C374 252.543 366.543 260 357.345 260V260C348.146 260 340.689 252.543 340.689 243.345V183.045Z" fill="white"/>
<path d="M223.145 193.471C214.513 195.013 205.896 189.546 206.005 180.777C206.073 175.27 206.895 169.771 208.469 164.392C211.52 153.963 217.316 144.256 225.423 135.996C233.53 127.736 243.738 121.139 255.282 116.698C266.825 112.257 279.405 110.089 292.078 110.354C304.751 110.62 317.189 113.313 328.459 118.233C339.729 123.152 349.539 130.169 357.155 138.758C364.77 147.348 369.992 157.287 372.431 167.83C373.714 173.377 374.209 179.015 373.92 184.627C373.476 193.254 364.744 198.191 356.313 196.311V196.311C346.849 194.201 341.578 184.119 339.733 174.6C339.65 174.169 339.558 173.738 339.459 173.308C337.995 166.982 334.862 161.019 330.293 155.865C325.724 150.711 319.837 146.501 313.075 143.55C306.313 140.598 298.85 138.982 291.247 138.823C283.643 138.663 276.095 139.964 269.169 142.629C262.243 145.293 256.118 149.252 251.254 154.208C246.39 159.163 242.912 164.988 241.081 171.245C240.94 171.728 240.809 172.212 240.688 172.697C238.357 182.052 232.636 191.775 223.145 193.471V193.471Z" fill="white"/>
<circle cx="356.782" cy="282.782" r="16.7816" fill="white"/>
</svg>
