<svg width="48" height="48" viewBox="0 0 48 48" fill="none" xmlns="http://www.w3.org/2000/svg">
<path d="M33 3H11C8.23858 3 6 5.23858 6 8V40C6 42.7614 8.23858 45 11 45H33C35.7614 45 38 42.7614 38 40V8C38 5.23858 35.7614 3 33 3Z" fill="#99A8F4"/>
<path d="M7.285 4.68604C6.46181 5.59393 6.00403 6.77453 6 8.00004V40C6.00159 41.3256 6.52888 42.5964 7.46622 43.5338C8.40356 44.4711 9.6744 44.9984 11 45H33C33.7033 44.9979 34.3981 44.8465 35.0385 44.5558C35.6789 44.2652 36.2503 43.8419 36.715 43.314L7.285 4.68604Z" fill="#7A88D0"/>
<path d="M33 12C33 11.7348 32.8946 11.4804 32.7071 11.2929C32.5196 11.1054 32.2652 11 32 11H15C14.7348 11 14.4804 11.1054 14.2929 11.2929C14.1054 11.4804 14 11.7348 14 12C14 12.2652 14.1054 12.5196 14.2929 12.7071C14.4804 12.8946 14.7348 13 15 13H32C32.2652 13 32.5196 12.8946 32.7071 12.7071C32.8946 12.5196 33 12.2652 33 12Z" fill="#DDDDDD"/>
<path d="M31.13 18C31.13 17.7348 31.0246 17.4804 30.8371 17.2929C30.6496 17.1054 30.3952 17 30.13 17H12C11.7348 17 11.4804 17.1054 11.2929 17.2929C11.1054 17.4804 11 17.7348 11 18C11 18.2652 11.1054 18.5196 11.2929 18.7071C11.4804 18.8946 11.7348 19 12 19H30.13C30.3952 19 30.6496 18.8946 30.8371 18.7071C31.0246 18.5196 31.13 18.2652 31.13 18Z" fill="#DDDDDD"/>
<path d="M16.667 17H12C11.7348 17 11.4804 17.1054 11.2929 17.2929C11.1054 17.4804 11 17.7348 11 18C11 18.2652 11.1054 18.5196 11.2929 18.7071C11.4804 18.8946 11.7348 19 12 19H18.19L16.667 17Z" fill="#FCFCFC"/>
<path d="M27.67 24C27.67 23.7348 27.5646 23.4804 27.3771 23.2929C27.1896 23.1054 26.9352 23 26.67 23H12C11.7348 23 11.4804 23.1054 11.2929 23.2929C11.1054 23.4804 11 23.7348 11 24C11 24.2652 11.1054 24.5196 11.2929 24.7071C11.4804 24.8946 11.7348 25 12 25H26.67C26.9352 25 27.1896 24.8946 27.3771 24.7071C27.5646 24.5196 27.67 24.2652 27.67 24Z" fill="#DDDDDD"/>
<path d="M21.238 23H12C11.7348 23 11.4804 23.1054 11.2929 23.2929C11.1054 23.4804 11 23.7348 11 24C11 24.2652 11.1054 24.5196 11.2929 24.7071C11.4804 24.8946 11.7348 25 12 25H22.762L21.238 23Z" fill="#FCFCFC"/>
<path d="M24.21 30C24.21 29.7348 24.1046 29.4804 23.9171 29.2929C23.7296 29.1054 23.4752 29 23.21 29H12C11.7348 29 11.4804 29.1054 11.2929 29.2929C11.1054 29.4804 11 29.7348 11 30C11 30.2652 11.1054 30.5196 11.2929 30.7071C11.4804 30.8946 11.7348 31 12 31H23.21C23.4752 31 23.7296 30.8946 23.9171 30.7071C24.1046 30.5196 24.21 30.2652 24.21 30Z" fill="#FCFCFC"/>
<path d="M12 35C11.7348 35 11.4804 35.1054 11.2929 35.2929C11.1054 35.4804 11 35.7348 11 36C11 36.2652 11.1054 36.5196 11.2929 36.7071C11.4804 36.8946 11.7348 37 12 37H22.08C22.3452 37 22.5996 36.8946 22.7871 36.7071C22.9746 36.5196 23.08 36.2652 23.08 36C23.08 35.7348 22.9746 35.4804 22.7871 35.2929C22.5996 35.1054 22.3452 35 22.08 35H12Z" fill="#FCFCFC"/>
<path d="M27.0694 38.3179C26.7953 38.3168 26.5243 38.2601 26.2728 38.1511C26.0213 38.0421 25.7946 37.8832 25.6064 37.6839C25.42 37.4866 25.2762 37.253 25.184 36.9977C25.0918 36.7424 25.0531 36.4708 25.0704 36.1999L25.2294 33.5589C25.2766 32.7843 25.5029 32.0312 25.8904 31.3589L37.5354 11.1829C37.7322 10.8413 37.9944 10.5418 38.3071 10.3017C38.6197 10.0615 38.9766 9.8853 39.3574 9.78314C39.7382 9.68098 40.1354 9.65487 40.5262 9.70631C40.9171 9.75776 41.294 9.88574 41.6354 10.0829L42.5014 10.5829C42.843 10.7797 43.1425 11.0419 43.3826 11.3546C43.6228 11.6672 43.799 12.0241 43.9012 12.4049C44.0034 12.7857 44.0295 13.1829 43.978 13.5737C43.9266 13.9646 43.7986 14.3415 43.6014 14.6829L31.9524 34.8539C31.5635 35.5256 31.0244 36.0982 30.3774 36.5269L28.1694 37.9849C27.8434 38.2015 27.4608 38.3173 27.0694 38.3179Z" fill="#17385E"/>
<path d="M27.0692 38.3179C27.4606 38.3173 27.8432 38.2015 28.1692 37.9849L30.3772 36.5269C31.0242 36.0982 31.5633 35.5256 31.9522 34.8539L43.6002 14.6839C43.7974 14.3425 43.9254 13.9656 43.9768 13.5747C44.0283 13.1839 44.0022 12.7867 43.9 12.4059C43.7978 12.0251 43.6216 11.6682 43.3814 11.3556C43.1413 11.043 42.8418 10.7807 42.5002 10.5839L42.1112 10.3589L26.1172 38.0589C26.4078 38.2237 26.7352 38.3127 27.0692 38.3179Z" fill="#2980B9"/>
<path d="M42.5009 10.5849L41.6349 10.0849C41.2935 9.88769 40.9166 9.75971 40.5257 9.70827C40.1349 9.65682 39.7377 9.68293 39.3569 9.78509C38.9761 9.88725 38.6192 10.0635 38.3066 10.3036C37.994 10.5438 37.7317 10.8433 37.5349 11.1849L36.0859 13.6999L42.1479 17.1999L43.5979 14.6889C43.7951 14.3475 43.9231 13.9706 43.9745 13.5797C44.026 13.1889 43.9999 12.7917 43.8977 12.4109C43.7955 12.0301 43.6193 11.6732 43.3791 11.3606C43.139 11.0479 42.8395 10.7857 42.4979 10.5889L42.5009 10.5849Z" fill="#2980B9"/>
<path d="M42.1472 17.1998L43.5972 14.6888C43.7944 14.3474 43.9224 13.9705 43.9738 13.5797C44.0253 13.1888 43.9992 12.7916 43.897 12.4108C43.7948 12.03 43.6186 11.6731 43.3784 11.3605C43.1383 11.0479 42.8388 10.7856 42.4972 10.5888L42.1082 10.3638L39.1602 15.4708L42.1472 17.1998Z" fill="#17385E"/>
<path d="M36.5352 12.9155L35.5352 14.6475L41.5975 18.1473L42.5975 16.4152L36.5352 12.9155Z" fill="#EAEFF0"/>
<path d="M39.6113 14.6909L38.6113 16.4229L41.5982 18.1474L42.5982 16.4154L39.6113 14.6909Z" fill="#CDD3D3"/>
</svg>
