<svg width="512" height="512" viewBox="0 0 512 512" fill="none" xmlns="http://www.w3.org/2000/svg">
<path d="M422.4 153.6V448C422.4 464.974 415.657 481.252 403.655 493.255C391.653 505.257 375.374 512 358.4 512H76.8C59.8262 512 43.5475 505.257 31.5452 493.255C19.5429 481.252 12.8 464.974 12.8 448V64C12.8 47.0261 19.5429 30.7475 31.5452 18.7452C43.5475 6.74284 59.8262 0 76.8 0L268.93 0L422.4 153.6Z" fill="#99A8F4"/>
<path d="M422.4 153.6H332.8C315.826 153.6 299.547 146.857 287.545 134.855C275.543 122.852 268.8 106.574 268.8 89.6V0H268.93L422.4 153.6Z" fill="#D8DEFB"/>
<path d="M217.6 256C217.6 257.681 217.269 259.345 216.626 260.898C215.982 262.451 215.04 263.862 213.851 265.051C212.662 266.24 211.251 267.182 209.698 267.826C208.145 268.469 206.481 268.8 204.8 268.8H128C124.605 268.8 121.349 267.451 118.949 265.051C116.549 262.65 115.2 259.395 115.2 256C115.2 252.605 116.549 249.349 118.949 246.949C121.349 244.549 124.605 243.2 128 243.2H204.8C208.195 243.2 211.45 244.549 213.851 246.949C216.251 249.349 217.6 252.605 217.6 256Z" fill="#F7F8FA"/>
<path d="M294.4 307.2C294.4 310.595 293.051 313.851 290.651 316.251C288.25 318.651 284.995 320 281.6 320H128C124.605 320 121.349 318.651 118.949 316.251C116.549 313.851 115.2 310.595 115.2 307.2V307.2C115.2 303.805 116.549 300.55 118.949 298.149C121.349 295.749 124.605 294.4 128 294.4H281.6C284.995 294.4 288.25 295.749 290.651 298.149C293.051 300.55 294.4 303.805 294.4 307.2V307.2Z" fill="#F7F8FA"/>
<path d="M294 358.4C294 361.795 292.651 365.05 290.251 367.451C287.85 369.851 284.595 371.2 281.2 371.2H128C124.605 371.2 121.349 369.851 118.949 367.451C116.549 365.05 115.2 361.795 115.2 358.4V358.4C115.2 355.005 116.549 351.749 118.949 349.349C121.349 346.949 124.605 345.6 128 345.6H281.22C284.611 345.605 287.862 346.956 290.258 349.356C292.654 351.756 294 355.009 294 358.4V358.4Z" fill="#F7F8FA"/>
<path d="M499.2 422.4C499.195 439.032 494.563 455.334 485.82 469.483C477.078 483.631 464.571 495.068 449.699 502.514C434.827 509.959 418.177 513.119 401.611 511.64C385.045 510.161 369.218 504.102 355.9 494.14C349.101 488.996 343.044 482.939 337.9 476.14C324.992 458.885 318.733 437.557 320.27 416.063C321.808 394.569 331.038 374.348 346.271 359.106C361.504 343.864 381.718 334.62 403.211 333.069C424.704 331.518 446.036 337.763 463.3 350.66C470.099 355.804 476.156 361.861 481.3 368.66C492.939 384.157 499.222 403.019 499.2 422.4V422.4Z" fill="#2980B9"/>
<path d="M481.34 368.7L355.9 494.14C349.101 488.996 343.044 482.939 337.9 476.14L463.3 350.66C470.116 355.813 476.187 361.884 481.34 368.7V368.7Z" fill="#7FABDA"/>
</svg>
