<svg width="64" height="64" viewBox="0 0 64 64" fill="none" xmlns="http://www.w3.org/2000/svg">
<path d="M61 11V53C61 54.0609 60.5786 55.0783 59.8284 55.8284C59.0783 56.5786 58.0609 57 57 57H11C10.2302 56.9999 9.47693 56.777 8.83104 56.3582C8.18514 55.9395 7.67424 55.3427 7.36 54.64C7.12329 54.1256 7.00049 53.5662 7 53V11C7 9.93913 7.42143 8.92172 8.17157 8.17157C8.92172 7.42143 9.93913 7 11 7H57C57.5662 7.00049 58.1256 7.12329 58.64 7.36C59.3427 7.67424 59.9395 8.18514 60.3582 8.83104C60.777 9.47693 60.9999 10.2302 61 11Z" fill="#E6E7E8"/>
<path d="M59 9V51C59 52.0609 58.5786 53.0783 57.8284 53.8284C57.0783 54.5786 56.0609 55 55 55H9C8.43379 54.9995 7.87436 54.8767 7.36 54.64C7.12329 54.1256 7.00049 53.5662 7 53V11C7 9.93913 7.42143 8.92172 8.17157 8.17157C8.92172 7.42143 9.93913 7 11 7H57C57.5662 7.00049 58.1256 7.12329 58.64 7.36C58.8767 7.87436 58.9995 8.43379 59 9Z" fill="#D8D7DA"/>
<path d="M57 7V11H3V7C3 5.93913 3.42143 4.92172 4.17157 4.17157C4.92172 3.42143 5.93913 3 7 3H53C54.0609 3 55.0783 3.42143 55.8284 4.17157C56.5786 4.92172 57 5.93913 57 7Z" fill="#2980B9"/>
<path d="M57 11V49C57 50.0609 56.5786 51.0783 55.8284 51.8284C55.0783 52.5786 54.0609 53 53 53H7C5.93913 53 4.92172 52.5786 4.17157 51.8284C3.42143 51.0783 3 50.0609 3 49V11H57Z" fill="#E6E7E8"/>
<path d="M45.0001 55.54L45.8401 57H41.3201C41.2361 56.6382 41.2532 56.2602 41.3696 55.9074C41.486 55.5547 41.6972 55.2408 41.9801 55C42.0727 54.9277 42.1696 54.8609 42.2701 54.8C42.4977 54.6685 42.7491 54.5834 43.0098 54.5494C43.2705 54.5155 43.5353 54.5334 43.789 54.6022C44.0427 54.6709 44.2804 54.7892 44.4882 54.9502C44.696 55.1111 44.87 55.3116 45.0001 55.54Z" fill="#D8D7DA"/>
<path d="M51 19H13C11.8954 19 11 19.8954 11 21V47C11 48.1046 11.8954 49 13 49H51C52.1046 49 53 48.1046 53 47V21C53 19.8954 52.1046 19 51 19Z" fill="#D8D7DA"/>
<path d="M61 53C61 54.0609 60.5786 55.0783 59.8284 55.8284C59.0783 56.5786 58.0609 57 57 57H47V45C47.0016 44.4701 47.2128 43.9623 47.5875 43.5875C47.9623 43.2128 48.4701 43.0016 49 43C49.5292 43.0039 50.0356 43.2159 50.4099 43.5901C50.7841 43.9644 50.9961 44.4708 51 45V53C51.0184 52.4754 51.235 51.9773 51.6062 51.6062C51.9773 51.235 52.4754 51.0184 53 51C53.5292 51.0039 54.0356 51.2159 54.4099 51.5901C54.7841 51.9644 54.9961 52.4708 55 53V54C55.0016 53.4701 55.2128 52.9623 55.5875 52.5875C55.9623 52.2128 56.4701 52.0016 57 52C57.2626 51.9986 57.5228 52.0501 57.765 52.1515C58.0073 52.2529 58.2266 52.402 58.41 52.59C58.4718 52.6485 58.5287 52.7121 58.58 52.78C58.8551 53.1268 59.0033 53.5573 59 54V55C59.0016 54.4701 59.2128 53.9623 59.5875 53.5875C59.9623 53.2128 60.4701 53.0016 61 53Z" fill="#D8D7DA"/>
<path d="M49 17H11C9.89543 17 9 17.8954 9 19V45C9 46.1046 9.89543 47 11 47H49C50.1046 47 51 46.1046 51 45V19C51 17.8954 50.1046 17 49 17Z" fill="#2980B9"/>
<path d="M51 45C50.9984 45.5299 50.7872 46.0377 50.4125 46.4125C50.0377 46.7872 49.5299 46.9984 49 47H47V45C47.0016 44.4701 47.2128 43.9623 47.5875 43.5875C47.9623 43.2128 48.4701 43.0016 49 43C49.5292 43.0039 50.0356 43.2159 50.4099 43.5901C50.7841 43.9644 50.9961 44.4708 51 45Z" fill="#FF9811"/>
<path d="M60.9998 53V62H43.2698L40.3798 57L39.5398 55.54C39.3018 55.1327 39.2155 54.6544 39.296 54.1897C39.3765 53.7249 39.6187 53.3035 39.9798 53C40.0724 52.9277 40.1693 52.8609 40.2698 52.8C40.4974 52.6685 40.7488 52.5834 41.0095 52.5494C41.2702 52.5155 41.535 52.5334 41.7887 52.6022C42.0424 52.6709 42.2801 52.7892 42.4879 52.9502C42.6957 53.1111 42.8697 53.3116 42.9998 53.54L44.9998 57V45C45.0014 44.4701 45.2126 43.9623 45.5873 43.5875C45.9621 43.2128 46.4698 43.0016 46.9998 43C47.529 43.0039 48.0354 43.2159 48.4097 43.5901C48.7839 43.9644 48.9959 44.4708 48.9998 45V51C49.0182 50.4754 49.2348 49.9773 49.606 49.6062C49.9771 49.235 50.4752 49.0184 50.9998 49C51.529 49.0039 52.0354 49.2159 52.4097 49.5901C52.7839 49.9644 52.9959 50.4708 52.9998 51V52C53.0014 51.4701 53.2126 50.9623 53.5873 50.5875C53.9621 50.2128 54.4698 50.0016 54.9998 50C55.2624 49.9986 55.5226 50.0501 55.7648 50.1515C56.0071 50.2529 56.2264 50.402 56.4098 50.59C56.4716 50.6485 56.5285 50.7121 56.5798 50.78C56.8549 51.1268 57.0031 51.5573 56.9998 52V53C57.0014 52.4701 57.2126 51.9623 57.5873 51.5875C57.9621 51.2128 58.4698 51.0016 58.9998 51C59.529 51.0039 60.0354 51.2159 60.4097 51.5901C60.7839 51.9644 60.9959 52.4708 60.9998 53Z" fill="#99A8F4"/>
<path d="M20.9998 29.9999H18.9998V33.9999H15.4768L18.9288 25.3719L17.0708 24.6279L13.0708 34.6279C13.01 34.7797 12.9873 34.9441 13.0048 35.1067C13.0222 35.2693 13.0793 35.4251 13.171 35.5606C13.2627 35.696 13.3862 35.8068 13.5307 35.8834C13.6752 35.96 13.8363 36 13.9998 35.9999H18.9998V38.9999H20.9998V35.9999H22.9998V33.9999H20.9998V29.9999Z" fill="#FCFCFC"/>
<path d="M44.9998 29.9999H42.9998V33.9999H39.4768L42.9288 25.3719L41.0708 24.6279L37.0708 34.6279C37.01 34.7797 36.9873 34.9441 37.0048 35.1067C37.0222 35.2693 37.0793 35.4251 37.171 35.5606C37.2627 35.696 37.3862 35.8068 37.5307 35.8834C37.6752 35.96 37.8363 36 37.9998 35.9999H42.9998V38.9999H44.9998V35.9999H46.9998V33.9999H44.9998V29.9999Z" fill="#FCFCFC"/>
<path d="M30 25C28.6744 25.0016 27.4036 25.5289 26.4662 26.4662C25.5289 27.4036 25.0016 28.6744 25 30V34C25 35.3261 25.5268 36.5979 26.4645 37.5355C27.4021 38.4732 28.6739 39 30 39C31.3261 39 32.5979 38.4732 33.5355 37.5355C34.4732 36.5979 35 35.3261 35 34V30C34.9984 28.6744 34.4711 27.4036 33.5338 26.4662C32.5964 25.5289 31.3256 25.0016 30 25ZM33 34C33 34.7956 32.6839 35.5587 32.1213 36.1213C31.5587 36.6839 30.7956 37 30 37C29.2044 37 28.4413 36.6839 27.8787 36.1213C27.3161 35.5587 27 34.7956 27 34V30C27 29.2044 27.3161 28.4413 27.8787 27.8787C28.4413 27.3161 29.2044 27 30 27C30.7956 27 31.5587 27.3161 32.1213 27.8787C32.6839 28.4413 33 29.2044 33 30V34Z" fill="#FCFCFC"/>
<path d="M57.91 6.09C57.6976 4.94238 57.0904 3.90523 56.1937 3.15825C55.2969 2.41126 54.1671 2.00152 53 2H7C5.67392 2 4.40215 2.52678 3.46447 3.46447C2.52678 4.40215 2 5.67392 2 7V49C2.00152 50.1671 2.41126 51.2969 3.15825 52.1937C3.90523 53.0904 4.94238 53.6976 6.09 53.91C6.30241 55.0576 6.90959 56.0948 7.80634 56.8418C8.70309 57.5887 9.83289 57.9985 11 58H39.8L42.4 62.5L44.13 61.5L40.4 55.04C40.2684 54.8095 40.2325 54.5367 40.3 54.28C40.3694 54.023 40.5378 53.804 40.7683 53.6709C40.9989 53.5378 41.2728 53.5015 41.53 53.57C41.6565 53.6038 41.7749 53.6629 41.878 53.7437C41.9812 53.8244 42.0669 53.9252 42.13 54.04L44.13 57.5C44.2424 57.6898 44.4132 57.8381 44.6169 57.9228C44.8205 58.0076 45.0462 58.0241 45.26 57.97C45.4731 57.9126 45.6612 57.7864 45.7951 57.6109C45.9289 57.4355 46.001 57.2207 46 57V45C46 44.7348 46.1054 44.4804 46.2929 44.2929C46.4804 44.1054 46.7348 44 47 44C47.2652 44 47.5196 44.1054 47.7071 44.2929C47.8946 44.4804 48 44.7348 48 45V54C48 54.2652 48.1054 54.5196 48.2929 54.7071C48.4804 54.8946 48.7348 55 49 55C49.2652 55 49.5196 54.8946 49.7071 54.7071C49.8946 54.5196 50 54.2652 50 54V51C50.0173 50.7405 50.1283 50.4961 50.3122 50.3122C50.4961 50.1283 50.7405 50.0173 51 50C51.2652 50 51.5196 50.1054 51.7071 50.2929C51.8946 50.4804 52 50.7348 52 51V54C52 54.2652 52.1054 54.5196 52.2929 54.7071C52.4804 54.8946 52.7348 55 53 55C53.2652 55 53.5196 54.8946 53.7071 54.7071C53.8946 54.5196 54 54.2652 54 54V52C54 51.7348 54.1054 51.4804 54.2929 51.2929C54.4804 51.1054 54.7348 51 55 51C55.2652 51 55.5196 51.1054 55.7071 51.2929C55.8946 51.4804 56 51.7348 56 52V55C56 55.2652 56.1054 55.5196 56.2929 55.7071C56.4804 55.8946 56.7348 56 57 56C57.2652 56 57.5196 55.8946 57.7071 55.7071C57.8946 55.5196 58 55.2652 58 55V53C58 52.7348 58.1054 52.4804 58.2929 52.2929C58.4804 52.1054 58.7348 52 59 52C59.2652 52 59.5196 52.1054 59.7071 52.2929C59.8946 52.4804 60 52.7348 60 53V62H62V11C61.9985 9.83289 61.5887 8.70309 60.8418 7.80634C60.0948 6.90959 59.0576 6.30241 57.91 6.09ZM11 56C10.3814 55.9968 9.77881 55.8031 9.27422 55.4452C8.76964 55.0874 8.38756 54.5827 8.18 54H38.33C38.198 54.6836 38.3113 55.3918 38.65 56H11ZM47 42C46.2051 42.0024 45.4434 42.3192 44.8813 42.8813C44.3192 43.4434 44.0024 44.2051 44 45V46H11C10.7348 46 10.4804 45.8946 10.2929 45.7071C10.1054 45.5196 10 45.2652 10 45V19C10 18.7348 10.1054 18.4804 10.2929 18.2929C10.4804 18.1054 10.7348 18 11 18H49C49.2652 18 49.5196 18.1054 49.7071 18.2929C49.8946 18.4804 50 18.7348 50 19V45C49.9976 44.2051 49.6808 43.4434 49.1187 42.8813C48.5566 42.3192 47.7949 42.0024 47 42ZM56 49C56 49.06 55.98 49.12 55.98 49.19C55.6668 49.0704 55.3352 49.0061 55 49C54.4842 48.9985 53.9772 49.1331 53.53 49.39C53.2592 48.9642 52.8854 48.6137 52.4432 48.3707C52.0009 48.1277 51.5046 48.0002 51 48C50.6579 48.0022 50.319 48.0665 50 48.19V47.82C50.5827 47.6124 51.0874 47.2304 51.4452 46.7258C51.8031 46.2212 51.9968 45.6186 52 45V19C51.9976 18.2051 51.6808 17.4434 51.1187 16.8813C50.5566 16.3192 49.7949 16.0024 49 16H11C10.2051 16.0024 9.4434 16.3192 8.8813 16.8813C8.31921 17.4434 8.00237 18.2051 8 19V45C8.00237 45.7949 8.31921 46.5566 8.8813 47.1187C9.4434 47.6808 10.2051 47.9976 11 48H44V52H42.85C42.5975 51.8439 42.325 51.7228 42.04 51.64C41.6607 51.5365 41.2646 51.5098 40.8748 51.5613C40.485 51.6128 40.1094 51.7415 39.77 51.94L39.68 52H7C6.20508 51.9976 5.4434 51.6808 4.8813 51.1187C4.31921 50.5566 4.00237 49.7949 4 49V12H56V49ZM56 10H4V7C4.00237 6.20508 4.31921 5.4434 4.8813 4.8813C5.4434 4.31921 6.20508 4.00237 7 4H53C53.7949 4.00237 54.5566 4.31921 55.1187 4.8813C55.6808 5.4434 55.9976 6.20508 56 7V10ZM60 50.18C59.6511 50.0487 59.2795 49.9882 58.907 50.0019C58.5344 50.0157 58.1683 50.1034 57.83 50.26C57.9418 49.8493 57.9989 49.4256 58 49V8.18C58.5827 8.38756 59.0874 8.76964 59.4452 9.27422C59.8031 9.77881 59.9968 10.3814 60 11V50.18Z" fill="black"/>
<path d="M8 6H6V8H8V6Z" fill="black"/>
<path d="M12 6H10V8H12V6Z" fill="black"/>
<path d="M16 6H14V8H16V6Z" fill="black"/>
</svg>
