<svg width="1663" height="512" viewBox="0 0 1663 512" fill="none" xmlns="http://www.w3.org/2000/svg">
<circle cx="939.483" cy="255.322" r="16.7816" fill="#2980b9"/>
<rect x="869" y="111.001" width="33.5632" height="292" rx="16.7816" fill="#2980b9"/>
<rect x="869" y="403" width="33.5632" height="134.253" rx="16.7816" transform="rotate(-90 869 403)" fill="#2980b9"/>
<rect x="869" y="144.563" width="33.5632" height="134.253" rx="16.7816" transform="rotate(-90 869 144.563)" fill="#2980b9"/>
<rect x="1293" y="111" width="33.5632" height="292" rx="16.7816" fill="#2980b9"/>
<rect x="1293" y="403" width="33.5632" height="134.253" rx="16.7816" transform="rotate(-90 1293 403)" fill="#2980b9"/>
<rect x="465" y="109.595" width="33.7494" height="293.62" rx="16.8747" fill="#2980b9"/>
<rect x="492.107" y="294.784" width="33.7494" height="230.618" rx="16.8747" transform="rotate(-137.045 492.107 294.784)" fill="#2980b9"/>
<rect x="558.627" y="293.193" width="33.7494" height="129.482" rx="16.8747" transform="rotate(-26.6722 558.627 293.193)" fill="#2980b9"/>
<circle cx="558.495" cy="264.627" r="16.8747" fill="#2980b9"/>
<circle cx="1049.57" cy="343.823" r="16.4045" transform="rotate(-180 1049.57 343.823)" fill="#2980b9"/>
<rect x="1066.01" y="317.447" width="32.8439" height="186.507" rx="16.422" transform="rotate(-180 1066.01 317.447)" fill="#2980b9"/>
<path d="M1038 156.417C1031.83 148.554 1033.15 137.064 1041.71 131.908C1058.37 121.883 1076.92 115.253 1096.28 112.477C1121.64 108.842 1147.51 111.944 1171.29 121.47C1195.07 130.997 1215.93 146.613 1231.77 166.75C1247.6 186.888 1257.86 210.838 1261.51 236.195C1265.16 261.552 1262.08 287.423 1252.56 311.21C1243.05 334.997 1227.45 355.862 1207.32 371.71C1187.19 387.559 1163.25 397.832 1137.89 401.498C1118.53 404.298 1098.87 403.169 1080.06 398.25C1070.39 395.721 1065.88 385.07 1069.59 375.784V375.784C1073.29 366.499 1083.82 362.137 1093.59 364.269C1106.39 367.065 1119.64 367.555 1132.71 365.665C1151.78 362.908 1169.79 355.182 1184.92 343.264C1200.06 331.346 1211.79 315.655 1218.95 297.767C1226.1 279.878 1228.42 260.423 1225.67 241.354C1222.93 222.285 1215.21 204.275 1203.31 189.131C1191.4 173.987 1175.71 162.243 1157.83 155.079C1139.95 147.915 1120.49 145.583 1101.42 148.317C1088.35 150.19 1075.77 154.399 1064.28 160.693C1055.51 165.495 1044.18 164.28 1038 156.417V156.417Z" fill="#2980b9"/>
<rect x="1508" y="316.471" width="37.2369" height="129.482" rx="18.6185" transform="rotate(-90 1508 316.471)" fill="#2980b9"/>
<path d="M1612.08 346.777C1619.59 351.93 1622.06 362.084 1616.39 369.164C1605.31 383.006 1590.88 393.252 1574.65 398.592C1553.59 405.521 1530.97 403.709 1511.03 393.5C1491.1 383.291 1475.25 365.388 1466.45 343.168C1457.66 320.949 1456.54 295.947 1463.3 272.878C1470.06 249.809 1484.24 230.266 1503.16 217.935C1522.08 205.604 1544.43 201.336 1566.01 205.936C1587.59 210.537 1606.89 223.688 1620.28 242.909C1630.48 257.536 1636.71 274.908 1638.44 293.035C1639.34 302.505 1630.98 309.692 1621.5 308.969V308.969C1612.14 308.255 1605.3 300.032 1603.55 290.804C1601.84 281.82 1598.32 273.299 1593.17 265.908C1584.87 253.991 1572.9 245.837 1559.52 242.985C1546.14 240.133 1532.28 242.779 1520.55 250.424C1508.82 258.069 1500.03 270.186 1495.84 284.489C1491.65 298.792 1492.34 314.293 1497.8 328.069C1503.25 341.845 1513.08 352.945 1525.44 359.274C1537.79 365.604 1551.82 366.727 1564.88 362.431C1572.13 360.044 1578.81 356.076 1584.54 350.832C1592.1 343.919 1603.6 340.956 1612.08 346.777V346.777Z" fill="#2980b9"/>
<path d="M671 217.655C671 208.457 678.457 201 687.655 201V201C696.854 201 704.31 208.457 704.31 217.655V386.549C704.31 395.748 696.854 403.204 687.655 403.204V403.204C678.457 403.204 671 395.748 671 386.549V217.655Z" fill="#2980b9"/>
<path d="M805.69 286.045C805.69 276.847 813.146 269.39 822.345 269.39V269.39C831.543 269.39 839 276.847 839 286.045V346.345C839 355.543 831.543 363 822.345 363V363C813.146 363 805.69 355.543 805.69 346.345V286.045Z" fill="#2980b9"/>
<path d="M688.145 296.471C679.513 298.013 670.896 292.546 671.005 283.777C671.073 278.27 671.895 272.771 673.469 267.392C676.52 256.963 682.316 247.256 690.423 238.996C698.53 230.736 708.738 224.139 720.282 219.698C731.825 215.257 744.405 213.089 757.078 213.354C769.751 213.62 782.189 216.313 793.459 221.233C804.729 226.152 814.539 233.169 822.155 241.758C829.77 250.348 834.992 260.287 837.431 270.83C838.714 276.377 839.209 282.015 838.92 287.627C838.476 296.254 829.744 301.191 821.313 299.311V299.311C811.849 297.201 806.578 287.119 804.733 277.6C804.65 277.169 804.558 276.738 804.459 276.308C802.995 269.982 799.862 264.019 795.293 258.865C790.724 253.711 784.837 249.501 778.075 246.55C771.313 243.598 763.85 241.982 756.247 241.823C748.643 241.663 741.095 242.964 734.169 245.629C727.243 248.293 721.118 252.252 716.254 257.208C711.39 262.163 707.912 267.988 706.081 274.245C705.94 274.728 705.809 275.212 705.688 275.697C703.357 285.052 697.636 294.775 688.145 296.471V296.471Z" fill="#2980b9"/>
<circle cx="821.782" cy="385.782" r="16.7816" fill="#2980b9"/>
<path d="M198.487 178.085L256.548 236.123C259.056 238.63 262.867 239.229 266.004 237.673C269.164 236.105 270.967 232.704 270.486 229.195C268.461 214.647 264.113 200.605 257.563 187.462C251.021 174.326 242.435 162.395 232.042 151.998L228.329 148.291L230.519 146.102C234.906 141.716 235.495 134.959 232.304 129.927L244.962 104.469C247.28 99.8062 246.363 94.1992 242.679 90.5179L236.035 83.8773C232.353 80.196 226.743 79.2773 222.077 81.5953L196.609 94.2476C191.573 91.0578 184.814 91.6468 180.427 96.032L178.239 98.2187L174.527 94.5078C153.781 73.7781 126.354 60.1312 97.2708 56.0781C93.588 55.5648 90.0115 57.6218 88.582 61.0851C87.3119 64.1617 88.0184 67.6679 90.3702 70.0046L148.431 128.048C144.658 132.112 143.959 138.006 146.343 142.748L108.537 185.443C106.392 187.866 106.618 191.569 109.042 193.714C111.458 195.852 115.164 195.64 117.317 193.209L154.207 151.548L174.979 172.309L42.2155 289.77C40.6719 291.137 38.3201 291.066 36.8609 289.607C35.4024 288.149 35.3305 285.798 36.6983 284.254L99.2099 213.657C101.355 211.234 101.129 207.531 98.705 205.386C96.2813 203.241 92.5758 203.466 90.4304 205.891L27.9196 276.487C22.4516 282.66 22.7377 292.063 28.5706 297.893C34.4114 303.731 43.8193 304.002 49.9852 298.544L183.781 180.17C185.618 181.093 187.626 181.563 189.637 181.563C192.821 181.564 195.995 180.395 198.487 178.085ZM247.069 192.686C251.391 201.358 254.663 210.458 256.844 219.844L206.795 169.816L220.039 156.577L223.752 160.285C233.246 169.782 241.091 180.683 247.069 192.686ZM227.294 92.089C227.446 92.014 227.628 92.0437 227.745 92.1624L234.39 98.8039C234.509 98.9226 234.537 99.1039 234.464 99.2539L223.711 120.88L205.66 102.836L227.294 92.089ZM106.683 69.7406C129.094 74.9898 149.926 86.496 166.237 102.794L169.948 106.505L156.702 119.746L106.683 69.7406ZM157.049 137.816C156.541 137.308 156.541 136.48 157.049 135.973L188.718 104.318C189.227 103.809 190.055 103.812 190.561 104.318L222.229 135.973C222.737 136.481 222.737 137.308 222.229 137.816L190.562 169.47C190.055 169.978 189.225 169.979 188.718 169.471L157.049 137.816ZM287.378 269.46C289.668 271.748 293.379 271.748 295.668 269.46C297.957 267.172 297.957 263.462 295.668 261.174L280.63 246.143C278.34 243.855 274.629 243.855 272.34 246.143C270.051 248.431 270.051 252.141 272.34 254.429L287.378 269.46ZM311.567 242.891C314.596 243.77 317.917 242.037 318.827 238.891C319.726 235.782 317.934 232.533 314.825 231.634L291.496 224.888C288.386 223.991 285.136 225.78 284.236 228.889C283.337 231.998 285.128 235.247 288.238 236.146L311.567 242.891ZM255.08 258.034C251.97 258.934 250.178 262.183 251.077 265.291L257.825 288.609C258.73 291.753 262.044 293.489 265.086 292.61C268.195 291.711 269.987 288.462 269.088 285.353L262.34 262.035C261.439 258.925 258.19 257.136 255.08 258.034Z" fill="#2980b9"/>
<path d="M418.138 223.606C421.376 223.606 424 220.983 424 217.747V73.5789C424 63.886 416.111 56.0008 406.414 56.0008H288.499C277.847 55.8844 272.087 68.5305 278.659 76.5477L339.647 152.272C341.401 154.45 342.261 157.184 342.066 159.973L334.568 267.872C334.277 272.07 331.683 275.687 327.798 277.31L249.338 310.096C238.876 314.468 233.272 325.623 236.015 336.62L245.145 373.243C246.109 377.109 244.909 381.213 242.014 383.951L188.889 434.199C180.706 441.955 186.321 456.002 197.572 456H406.413C416.109 456 423.998 448.115 423.998 438.422V245.063C423.998 241.827 421.375 239.203 418.137 239.203C414.898 239.203 412.275 241.827 412.275 245.063V438.422C412.275 441.653 409.645 444.281 406.413 444.281H197.574C196.886 444.351 196.41 443.123 196.949 442.712L250.073 392.463C256.036 386.823 258.507 378.373 256.522 370.409L247.392 333.786C246.061 328.447 248.781 323.03 253.86 320.908L332.321 288.122C340.321 284.779 345.665 277.33 346.266 268.684L353.762 160.786C354.163 155.041 352.393 149.408 348.78 144.923L287.792 69.1985C287.343 68.7477 287.889 67.6555 288.5 67.7188H406.414C409.647 67.7188 412.276 70.3469 412.276 73.5781V217.746C412.276 220.983 414.9 223.606 418.138 223.606Z" fill="#2980b9"/>
<path d="M342.883 194.283C342.883 197.303 343.808 199.752 344.95 199.752H381.459C382.6 199.752 386.652 198.189 386.652 194.283C386.652 190.376 382.6 188.814 381.459 188.814H344.95C343.808 188.814 342.883 191.263 342.883 194.283Z" fill="#2980b9"/>
<path d="M342.883 227.877C342.883 230.897 343.808 233.345 344.95 233.345H381.459C382.6 233.345 386.652 231.783 386.652 227.877C386.652 223.97 382.6 222.408 381.459 222.408H344.95C343.808 222.408 342.883 224.856 342.883 227.877Z" fill="#2980b9"/>
<path d="M342.883 261.47C342.883 264.49 343.808 266.939 344.95 266.939H381.459C382.6 266.939 386.652 265.377 386.652 261.47C386.652 257.564 382.6 256.001 381.459 256.001H344.95C343.808 256.001 342.883 258.45 342.883 261.47Z" fill="#2980b9"/>
<path d="M244.403 328.658C244.403 331.678 246.552 334.127 249.203 334.127H380.117C382.768 334.127 386.652 331.783 386.652 328.658C386.652 324.752 382.768 323.189 380.117 323.189H249.203C246.552 323.189 244.403 325.638 244.403 328.658Z" fill="#2980b9"/>
<path d="M298.332 295.064C298.332 298.085 299.643 300.533 301.26 300.533H381.103C382.72 300.533 386.652 299.361 386.652 295.064C386.652 290.123 382.72 289.596 381.103 289.596H301.26C299.643 289.596 298.332 292.044 298.332 295.064Z" fill="#2980b9"/>
<path d="M361.389 385.869L353.826 395.922L345.174 393.05L348.211 414.232H374.567L377.604 393.05L368.952 395.922L361.389 385.869ZM370.672 409.754H352.106L350.65 399.588L355.475 401.193L361.389 393.334L367.303 401.193L372.128 399.588L370.672 409.754Z" fill="#2980b9"/>
<path d="M390.822 381.83C390.261 379.34 389.002 377.061 387.185 375.244C385.368 373.426 383.092 372.168 380.602 371.607C376.345 370.644 372.309 368.973 368.613 366.64C364.296 363.915 358.475 363.915 354.163 366.64C350.465 368.971 346.429 370.644 342.174 371.607C339.682 372.168 337.406 373.426 335.589 375.244C333.772 377.061 332.513 379.34 331.952 381.827C330.99 386.08 329.321 390.117 326.986 393.818C325.627 395.975 324.906 398.474 324.906 401.044C324.906 403.614 325.627 406.114 326.991 408.269C329.323 411.972 330.995 416.008 331.957 420.259C332.518 422.752 333.776 425.027 335.594 426.845C337.406 428.66 339.682 429.917 342.174 430.482C346.434 431.447 350.47 433.116 354.166 435.449C356.32 436.81 358.819 437.531 361.389 437.531C363.959 437.531 366.458 436.81 368.613 435.447C372.311 433.116 376.347 431.444 380.607 430.48C383.099 429.914 385.374 428.658 387.187 426.843C389.004 425.025 390.263 422.749 390.824 420.259C391.786 416.006 393.455 411.97 395.79 408.269C397.151 406.114 397.872 403.614 397.872 401.044C397.872 398.474 397.151 395.975 395.788 393.82C393.455 390.117 391.784 386.08 390.822 381.83V381.83ZM391.932 405.838C389.319 409.981 387.452 414.496 386.373 419.258C386.001 420.907 385.169 422.414 383.961 423.62C382.757 424.824 381.25 425.659 379.599 426.033C374.831 427.114 370.316 428.982 366.178 431.593C363.323 433.401 359.456 433.401 356.596 431.593C352.462 428.982 347.945 427.114 343.178 426.033C341.527 425.659 340.019 424.827 338.816 423.62C337.609 422.414 336.775 420.907 336.403 419.256C335.325 414.497 333.457 409.984 330.844 405.836C329.943 404.408 329.467 402.75 329.467 401.044C329.467 399.339 329.943 397.681 330.846 396.251C333.459 392.108 335.327 387.592 336.405 382.831C336.777 381.182 337.609 379.675 338.818 378.468C340.026 377.262 341.531 376.427 343.182 376.056C347.948 374.977 352.46 373.107 356.601 370.496C358.026 369.595 359.684 369.119 361.389 369.119C363.095 369.119 364.753 369.595 366.182 370.498C370.318 373.109 374.833 374.979 379.601 376.058C381.25 376.43 382.757 377.262 383.963 378.471C385.169 379.679 386.004 381.184 386.375 382.835C387.454 387.595 389.321 392.108 391.934 396.256C392.835 397.681 393.312 399.339 393.312 401.044C393.312 402.75 392.835 404.408 391.932 405.838V405.838Z" fill="#2980b9"/>
</svg>
