<?xml version="1.0" encoding="UTF-8" standalone="no"?>
<svg
   xmlns:dc="http://purl.org/dc/elements/1.1/"
   xmlns:cc="http://creativecommons.org/ns#"
   xmlns:rdf="http://www.w3.org/1999/02/22-rdf-syntax-ns#"
   xmlns:svg="http://www.w3.org/2000/svg"
   xmlns="http://www.w3.org/2000/svg"
   xmlns:sodipodi="http://sodipodi.sourceforge.net/DTD/sodipodi-0.dtd"
   xmlns:inkscape="http://www.inkscape.org/namespaces/inkscape"
   version="1.1"
   id="svg2"
   xml:space="preserve"
   width="68.026665"
   height="62.639999"
   viewBox="0 0 68.026665 62.639999"
   sodipodi:docname="unb.eps"><metadata
     id="metadata8"><rdf:RDF><cc:Work
         rdf:about=""><dc:format>image/svg+xml</dc:format><dc:type
           rdf:resource="http://purl.org/dc/dcmitype/StillImage" /></cc:Work></rdf:RDF></metadata><defs
     id="defs6" /><sodipodi:namedview
     pagecolor="#ffffff"
     bordercolor="#666666"
     borderopacity="1"
     objecttolerance="10"
     gridtolerance="10"
     guidetolerance="10"
     inkscape:pageopacity="0"
     inkscape:pageshadow="2"
     inkscape:window-width="640"
     inkscape:window-height="480"
     id="namedview4" /><g
     id="g10"
     inkscape:groupmode="layer"
     inkscape:label="ink_ext_XXXXXX"
     transform="matrix(1.3333333,0,0,-1.3333333,0,62.64)"><g
       id="g12"
       transform="scale(0.1)"><path
         d="M 510.234,214.633 H 0 V 469.75 H 510.234 V 214.633"
         style="fill:#ffffff;fill-opacity:1;fill-rule:nonzero;stroke:none"
         id="path14" /><path
         d="M 70.8633,55.5664 V 143.77 H 103.313 V 57.9961 c 0,-22.3125 10.335,-32.6445 28.582,-32.6445 18.656,0 27.984,10.7422 27.984,33.6523 V 143.77 h 32.644 V 56.9805 C 192.523,17.8516 169.203,0 131.289,0 94.9961,0 70.8633,16.4258 70.8633,55.5664"
         style="fill:#133e79;fill-opacity:1;fill-rule:nonzero;stroke:none"
         id="path16" /><path
         d="M 288.66,2.03125 V 65.7031 c 0,15.2032 -4.258,22.9102 -16.824,22.9102 -12.981,0 -20.273,-11.1524 -20.273,-28.9961 V 2.03125 H 219.727 V 85.5664 c 0,11.1524 -0.407,19.0626 -0.606,25.1566 h 30.41 c 0.41,-3.868 1.414,-16.2308 1.629,-22.305 5.473,17.227 19.055,24.324 34.668,24.324 27.375,0 35.078,-18.4451 35.078,-38.7264 V 2.03125 H 288.66"
         style="fill:#133e79;fill-opacity:1;fill-rule:nonzero;stroke:none"
         id="path18" /><path
         d="M 397.988,63.4766 H 379.941 V 25.5469 h 19.063 c 15.012,0 25.144,4.8633 25.144,19.4726 0,14.3946 -11.753,18.4571 -26.16,18.4571 z m -3.855,57.1684 H 379.941 V 87.5977 h 14.407 c 15.41,0 22.09,5.0781 22.09,16.6213 0,11.972 -7.09,16.426 -22.305,16.426 z m 7.91,-118.61375 h -53.93 V 143.77 h 49.067 c 32.847,0 51.699,-11.973 51.699,-35.899 0,-16.0155 -8.52,-26.5624 -25.551,-30.6054 21.699,-2.8515 33.664,-15.8203 33.664,-34.6875 0,-28.5742 -23.113,-40.54685 -54.949,-40.54685"
         style="fill:#133e79;fill-opacity:1;fill-rule:nonzero;stroke:none"
         id="path20" /><path
         d="m 431.555,376.996 c -25.754,-18.566 -53.91,-34.656 -84.25,-47.781 -14.992,-6.485 -31.153,-10.969 -48.172,-13.098 -12.102,-1.512 -24.426,-2.273 -36.926,-2.273 v -99.211 h 248.027 v 219.176 l -78.671,-56.821 -0.008,0.008"
         style="fill:#008940;fill-opacity:1;fill-rule:nonzero;stroke:none"
         id="path22" /><path
         d="M 78.6758,376.996 C 104.438,358.43 132.59,342.34 162.934,329.215 c 14.996,-6.485 31.148,-10.969 48.175,-13.098 12.094,-1.512 24.418,-2.273 36.926,-2.273 V 214.633 H 0 v 219.176 l 78.6719,-56.821 0.0039,0.008"
         style="fill:#008940;fill-opacity:1;fill-rule:nonzero;stroke:none"
         id="path24" /><path
         d="M 262.207,469.75 V 328.02 c 11.902,0 23.645,0.734 35.164,2.16 v 0 c 15.656,1.961 30.512,6.082 44.301,12.043 29.391,12.711 56.641,28.285 81.582,46.269 v -0.004 l 86.98,62.817 V 469.75 H 262.207"
         style="fill:#133e79;fill-opacity:1;fill-rule:nonzero;stroke:none"
         id="path26" /><path
         d="M 248.035,469.75 V 328.02 c -11.914,0 -23.644,0.734 -35.164,2.16 h -0.004 c -15.66,1.961 -30.519,6.082 -44.308,12.043 -29.383,12.711 -56.633,28.285 -81.5824,46.269 v -0.004 L 0,451.305 v 18.445 h 248.035"
         style="fill:#133e79;fill-opacity:1;fill-rule:nonzero;stroke:none"
         id="path28" /></g></g></svg>
