<svg width="125" height="24" viewBox="0 0 125 24" fill="none" xmlns="http://www.w3.org/2000/svg">
<path d="M10.304 9.864H15.808L9.616 16.136L16.448 23H10.816L5.744 17.72V23H0.88V0.983999H5.744V14.44L10.304 9.864ZM26.7903 9.48C27.7076 9.48 28.6036 9.66667 29.4783 10.04C30.3529 10.4133 31.0729 11.0053 31.6383 11.816C32.2036 12.616 32.4862 13.672 32.4862 14.984V23H27.6063V15.784C27.6063 14.8453 27.3823 14.1413 26.9343 13.672C26.4863 13.192 25.8996 12.952 25.1743 12.952C24.6943 12.952 24.2409 13.08 23.8143 13.336C23.3983 13.5813 23.0569 13.9333 22.7903 14.392C22.5343 14.84 22.4063 15.3573 22.4063 15.944V23H17.5423V9.864H22.4063V11.8C22.5343 11.448 22.8009 11.096 23.2063 10.744C23.6223 10.3813 24.1396 10.0827 24.7583 9.848C25.3876 9.60267 26.0649 9.48 26.7903 9.48ZM39.1848 17.464C39.2168 17.9333 39.3661 18.3493 39.6328 18.712C39.8994 19.0747 40.2674 19.3627 40.7368 19.576C41.2168 19.7787 41.7821 19.88 42.4328 19.88C43.0514 19.88 43.6061 19.816 44.0968 19.688C44.5981 19.56 45.0301 19.4 45.3928 19.208C45.7661 19.016 46.0541 18.8187 46.2568 18.616L48.1448 21.624C47.8781 21.912 47.4994 22.1947 47.0088 22.472C46.5288 22.7387 45.8941 22.9573 45.1048 23.128C44.3154 23.2987 43.3181 23.384 42.1128 23.384C40.6621 23.384 39.3714 23.112 38.2408 22.568C37.1101 22.024 36.2194 21.224 35.5688 20.168C34.9181 19.112 34.5928 17.8213 34.5928 16.296C34.5928 15.016 34.8701 13.864 35.4248 12.84C35.9901 11.8053 36.8061 10.9893 37.8728 10.392C38.9394 9.784 40.2248 9.48 41.7288 9.48C43.1581 9.48 44.3954 9.74133 45.4408 10.264C46.4968 10.7867 47.3074 11.5653 47.8728 12.6C48.4488 13.624 48.7368 14.904 48.7368 16.44C48.7368 16.5253 48.7314 16.696 48.7208 16.952C48.7208 17.208 48.7101 17.3787 48.6888 17.464H39.1848ZM44.1608 14.92C44.1501 14.5787 44.0594 14.2427 43.8888 13.912C43.7181 13.5707 43.4621 13.2933 43.1208 13.08C42.7794 12.856 42.3421 12.744 41.8088 12.744C41.2754 12.744 40.8221 12.8507 40.4488 13.064C40.0861 13.2667 39.8088 13.5333 39.6168 13.864C39.4248 14.1947 39.3181 14.5467 39.2968 14.92H44.1608ZM56.8823 23.384C55.6129 23.384 54.5089 23.0747 53.5703 22.456C52.6316 21.8267 51.9009 20.9893 51.3783 19.944C50.8663 18.888 50.6103 17.72 50.6103 16.44C50.6103 15.16 50.8663 13.9973 51.3783 12.952C51.9009 11.896 52.6316 11.0533 53.5703 10.424C54.5089 9.79467 55.6129 9.48 56.8823 9.48C57.7249 9.48 58.4716 9.61333 59.1223 9.88C59.7729 10.136 60.3009 10.4453 60.7063 10.808C61.1116 11.16 61.3569 11.4853 61.4423 11.784V0.983999H66.3063V23H61.4903V20.872C61.2876 21.2667 60.9569 21.6613 60.4983 22.056C60.0396 22.44 59.5009 22.7547 58.8823 23C58.2636 23.256 57.5969 23.384 56.8823 23.384ZM58.3703 19.56C58.9569 19.56 59.4796 19.4267 59.9383 19.16C60.4076 18.8933 60.7756 18.5253 61.0423 18.056C61.3089 17.576 61.4423 17.0373 61.4423 16.44C61.4423 15.8427 61.3089 15.3093 61.0423 14.84C60.7756 14.36 60.4076 13.9867 59.9383 13.72C59.4796 13.4427 58.9569 13.304 58.3703 13.304C57.8049 13.304 57.2929 13.4427 56.8343 13.72C56.3863 13.9867 56.0289 14.36 55.7623 14.84C55.5063 15.3093 55.3783 15.8427 55.3783 16.44C55.3783 17.0373 55.5063 17.576 55.7623 18.056C56.0289 18.5253 56.3863 18.8933 56.8343 19.16C57.2929 19.4267 57.8049 19.56 58.3703 19.56ZM79.3173 23V20.872C79.2213 21.0853 78.9759 21.3947 78.5813 21.8C78.1973 22.2053 77.6853 22.5733 77.0453 22.904C76.4053 23.224 75.6586 23.384 74.8053 23.384C73.5253 23.384 72.4053 23.0747 71.4453 22.456C70.4853 21.8267 69.7386 20.9893 69.2053 19.944C68.6719 18.888 68.4053 17.72 68.4053 16.44C68.4053 15.16 68.6719 13.9973 69.2053 12.952C69.7386 11.896 70.4853 11.0533 71.4453 10.424C72.4053 9.79467 73.5253 9.48 74.8053 9.48C75.6266 9.48 76.3466 9.61333 76.9653 9.88C77.5839 10.136 78.0853 10.4453 78.4693 10.808C78.8533 11.16 79.1199 11.4853 79.2693 11.784V9.864H84.1013V23H79.3173ZM73.1733 16.44C73.1733 17.0373 73.3119 17.576 73.5893 18.056C73.8666 18.5253 74.2346 18.8933 74.6933 19.16C75.1626 19.4267 75.6799 19.56 76.2453 19.56C76.8319 19.56 77.3493 19.4267 77.7973 19.16C78.2453 18.8933 78.5973 18.5253 78.8533 18.056C79.1199 17.576 79.2533 17.0373 79.2533 16.44C79.2533 15.8427 79.1199 15.3093 78.8533 14.84C78.5973 14.36 78.2453 13.9867 77.7973 13.72C77.3493 13.4427 76.8319 13.304 76.2453 13.304C75.6799 13.304 75.1626 13.4427 74.6933 13.72C74.2346 13.9867 73.8666 14.36 73.5893 14.84C73.3119 15.3093 73.1733 15.8427 73.1733 16.44ZM93.0758 9.48C93.9398 9.48 94.7291 9.55467 95.4438 9.704C96.1584 9.84267 96.7558 10.0027 97.2358 10.184C97.7264 10.3653 98.0411 10.5147 98.1798 10.632L96.5958 13.496C96.3931 13.3467 96.0144 13.1547 95.4598 12.92C94.9158 12.6853 94.3078 12.568 93.6358 12.568C93.1238 12.568 92.6918 12.648 92.3398 12.808C91.9878 12.9573 91.8118 13.1973 91.8118 13.528C91.8118 13.8587 92.0038 14.1253 92.3878 14.328C92.7824 14.52 93.3478 14.6907 94.0838 14.84C94.7238 14.968 95.3744 15.1707 96.0358 15.448C96.6971 15.7253 97.2464 16.136 97.6838 16.68C98.1318 17.2133 98.3558 17.928 98.3558 18.824C98.3558 19.7413 98.1584 20.4987 97.7638 21.096C97.3691 21.6933 96.8464 22.1573 96.1958 22.488C95.5451 22.8187 94.8411 23.048 94.0838 23.176C93.3264 23.3147 92.5904 23.384 91.8758 23.384C90.8731 23.384 89.9984 23.2933 89.2518 23.112C88.5158 22.9307 87.9184 22.7227 87.4598 22.488C87.0011 22.2533 86.6811 22.0667 86.4998 21.928L88.0678 18.728C88.3451 18.9627 88.7984 19.2293 89.4278 19.528C90.0571 19.816 90.7238 19.96 91.4278 19.96C92.1104 19.96 92.6384 19.8587 93.0118 19.656C93.3851 19.4533 93.5718 19.1867 93.5718 18.856C93.5718 18.5893 93.4811 18.376 93.2998 18.216C93.1184 18.056 92.8624 17.9173 92.5318 17.8C92.2011 17.6827 91.8011 17.576 91.3318 17.48C90.9051 17.3947 90.4518 17.2613 89.9718 17.08C89.4918 16.8987 89.0384 16.6533 88.6118 16.344C88.1851 16.024 87.8384 15.624 87.5718 15.144C87.3051 14.664 87.1718 14.0827 87.1718 13.4C87.1718 12.5253 87.4544 11.8 88.0198 11.224C88.5851 10.648 89.3158 10.216 90.2118 9.928C91.1078 9.62933 92.0624 9.48 93.0758 9.48ZM110.09 9.48C111.007 9.48 111.903 9.66667 112.778 10.04C113.652 10.4133 114.372 11.0053 114.938 11.816C115.503 12.616 115.786 13.672 115.786 14.984V23H110.922V15.784C110.922 14.8453 110.708 14.1413 110.282 13.672C109.866 13.192 109.295 12.952 108.57 12.952C108.09 12.952 107.631 13.08 107.194 13.336C106.756 13.5813 106.399 13.9333 106.122 14.392C105.855 14.84 105.722 15.3573 105.722 15.944V23H100.842V0.983999H105.722V11.8C105.839 11.448 106.1 11.096 106.506 10.744C106.922 10.3813 107.439 10.0827 108.058 9.848C108.687 9.60267 109.364 9.48 110.09 9.48Z" fill="#FCFCFC"/>
<path d="M121.921 23.384C121.131 23.384 120.449 23.1013 119.873 22.536C119.307 21.96 119.025 21.2773 119.025 20.488C119.025 19.6773 119.307 18.9893 119.873 18.424C120.449 17.848 121.131 17.56 121.921 17.56C122.731 17.56 123.419 17.848 123.985 18.424C124.55 18.9893 124.833 19.6773 124.833 20.488C124.833 21.2773 124.55 21.96 123.985 22.536C123.419 23.1013 122.731 23.384 121.921 23.384Z" fill="#99A8F4"/>
</svg>
