<svg width="776" height="141" viewBox="0 0 776 141" fill="none" xmlns="http://www.w3.org/2000/svg">
<path d="M59.4 55.9H93.8L55.1 95.1L97.8 138H62.6L30.9 105V138H0.5V0.399995H30.9V84.5L59.4 55.9ZM162.439 53.5C168.172 53.5 173.772 54.6667 179.239 57C184.706 59.3333 189.206 63.0333 192.739 68.1C196.272 73.1 198.039 79.7 198.039 87.9V138H167.539V92.9C167.539 87.0333 166.139 82.6333 163.339 79.7C160.539 76.7 156.872 75.2 152.339 75.2C149.339 75.2 146.506 76 143.839 77.6C141.239 79.1333 139.106 81.3333 137.439 84.2C135.839 87 135.039 90.2333 135.039 93.9V138H104.639V55.9H135.039V68C135.839 65.8 137.506 63.6 140.039 61.4C142.639 59.1333 145.872 57.2667 149.739 55.8C153.672 54.2667 157.906 53.5 162.439 53.5ZM239.905 103.4C240.105 106.333 241.038 108.933 242.705 111.2C244.371 113.467 246.671 115.267 249.605 116.6C252.605 117.867 256.138 118.5 260.205 118.5C264.071 118.5 267.538 118.1 270.605 117.3C273.738 116.5 276.438 115.5 278.705 114.3C281.038 113.1 282.838 111.867 284.105 110.6L295.905 129.4C294.238 131.2 291.871 132.967 288.805 134.7C285.805 136.367 281.838 137.733 276.905 138.8C271.971 139.867 265.738 140.4 258.205 140.4C249.138 140.4 241.071 138.7 234.005 135.3C226.938 131.9 221.371 126.9 217.305 120.3C213.238 113.7 211.205 105.633 211.205 96.1C211.205 88.1 212.938 80.9 216.405 74.5C219.938 68.0333 225.038 62.9333 231.705 59.2C238.371 55.4 246.405 53.5 255.805 53.5C264.738 53.5 272.471 55.1333 279.005 58.4C285.605 61.6667 290.671 66.5333 294.205 73C297.805 79.4 299.605 87.4 299.605 97C299.605 97.5333 299.571 98.6 299.505 100.2C299.505 101.8 299.438 102.867 299.305 103.4H239.905ZM271.005 87.5C270.938 85.3667 270.371 83.2667 269.305 81.2C268.238 79.0667 266.638 77.3333 264.505 76C262.371 74.6 259.638 73.9 256.305 73.9C252.971 73.9 250.138 74.5667 247.805 75.9C245.538 77.1667 243.805 78.8333 242.605 80.9C241.405 82.9667 240.738 85.1667 240.605 87.5H271.005ZM350.514 140.4C342.581 140.4 335.681 138.467 329.814 134.6C323.947 130.667 319.381 125.433 316.114 118.9C312.914 112.3 311.314 105 311.314 97C311.314 89 312.914 81.7333 316.114 75.2C319.381 68.6 323.947 63.3333 329.814 59.4C335.681 55.4667 342.581 53.5 350.514 53.5C355.781 53.5 360.447 54.3333 364.514 56C368.581 57.6 371.881 59.5333 374.414 61.8C376.947 64 378.481 66.0333 379.014 67.9V0.399995H409.414V138H379.314V124.7C378.047 127.167 375.981 129.633 373.114 132.1C370.247 134.5 366.881 136.467 363.014 138C359.147 139.6 354.981 140.4 350.514 140.4ZM359.814 116.5C363.481 116.5 366.747 115.667 369.614 114C372.547 112.333 374.847 110.033 376.514 107.1C378.181 104.1 379.014 100.733 379.014 97C379.014 93.2667 378.181 89.9333 376.514 87C374.847 84 372.547 81.6667 369.614 80C366.747 78.2667 363.481 77.4 359.814 77.4C356.281 77.4 353.081 78.2667 350.214 80C347.414 81.6667 345.181 84 343.514 87C341.914 89.9333 341.114 93.2667 341.114 97C341.114 100.733 341.914 104.1 343.514 107.1C345.181 110.033 347.414 112.333 350.214 114C353.081 115.667 356.281 116.5 359.814 116.5ZM490.733 138V124.7C490.133 126.033 488.599 127.967 486.133 130.5C483.733 133.033 480.533 135.333 476.533 137.4C472.533 139.4 467.866 140.4 462.533 140.4C454.533 140.4 447.533 138.467 441.533 134.6C435.533 130.667 430.866 125.433 427.533 118.9C424.199 112.3 422.533 105 422.533 97C422.533 89 424.199 81.7333 427.533 75.2C430.866 68.6 435.533 63.3333 441.533 59.4C447.533 55.4667 454.533 53.5 462.533 53.5C467.666 53.5 472.166 54.3333 476.033 56C479.899 57.6 483.033 59.5333 485.433 61.8C487.833 64 489.499 66.0333 490.433 67.9V55.9H520.633V138H490.733ZM452.333 97C452.333 100.733 453.199 104.1 454.933 107.1C456.666 110.033 458.966 112.333 461.833 114C464.766 115.667 467.999 116.5 471.533 116.5C475.199 116.5 478.433 115.667 481.233 114C484.033 112.333 486.233 110.033 487.833 107.1C489.499 104.1 490.333 100.733 490.333 97C490.333 93.2667 489.499 89.9333 487.833 87C486.233 84 484.033 81.6667 481.233 80C478.433 78.2667 475.199 77.4 471.533 77.4C467.999 77.4 464.766 78.2667 461.833 80C458.966 81.6667 456.666 84 454.933 87C453.199 89.9333 452.333 93.2667 452.333 97ZM576.723 53.5C582.123 53.5 587.057 53.9667 591.523 54.9C595.99 55.7667 599.723 56.7667 602.723 57.9C605.79 59.0333 607.757 59.9667 608.623 60.7L598.723 78.6C597.457 77.6667 595.09 76.4667 591.623 75C588.223 73.5333 584.423 72.8 580.223 72.8C577.023 72.8 574.323 73.3 572.123 74.3C569.923 75.2333 568.823 76.7333 568.823 78.8C568.823 80.8667 570.023 82.5333 572.423 83.8C574.89 85 578.423 86.0667 583.023 87C587.023 87.8 591.09 89.0667 595.223 90.8C599.357 92.5333 602.79 95.1 605.523 98.5C608.323 101.833 609.723 106.3 609.723 111.9C609.723 117.633 608.49 122.367 606.023 126.1C603.557 129.833 600.29 132.733 596.223 134.8C592.157 136.867 587.757 138.3 583.023 139.1C578.29 139.967 573.69 140.4 569.223 140.4C562.957 140.4 557.49 139.833 552.823 138.7C548.223 137.567 544.49 136.267 541.623 134.8C538.757 133.333 536.757 132.167 535.623 131.3L545.423 111.3C547.157 112.767 549.99 114.433 553.923 116.3C557.857 118.1 562.023 119 566.423 119C570.69 119 573.99 118.367 576.323 117.1C578.657 115.833 579.823 114.167 579.823 112.1C579.823 110.433 579.257 109.1 578.123 108.1C576.99 107.1 575.39 106.233 573.323 105.5C571.257 104.767 568.757 104.1 565.823 103.5C563.157 102.967 560.323 102.133 557.323 101C554.323 99.8667 551.49 98.3333 548.823 96.4C546.157 94.4 543.99 91.9 542.323 88.9C540.657 85.9 539.823 82.2667 539.823 78C539.823 72.5333 541.59 68 545.123 64.4C548.657 60.8 553.223 58.1 558.823 56.3C564.423 54.4333 570.39 53.5 576.723 53.5ZM683.061 53.5C688.794 53.5 694.394 54.6667 699.861 57C705.328 59.3333 709.828 63.0333 713.361 68.1C716.894 73.1 718.661 79.7 718.661 87.9V138H688.261V92.9C688.261 87.0333 686.928 82.6333 684.261 79.7C681.661 76.7 678.094 75.2 673.561 75.2C670.561 75.2 667.694 76 664.961 77.6C662.228 79.1333 659.994 81.3333 658.261 84.2C656.594 87 655.761 90.2333 655.761 93.9V138H625.261V0.399995H655.761V68C656.494 65.8 658.128 63.6 660.661 61.4C663.261 59.1333 666.494 57.2667 670.361 55.8C674.294 54.2667 678.528 53.5 683.061 53.5Z" fill="#2980B9"/>
<path d="M757.003 140.4C752.07 140.4 747.803 138.633 744.203 135.1C740.67 131.5 738.903 127.233 738.903 122.3C738.903 117.233 740.67 112.933 744.203 109.4C747.803 105.8 752.07 104 757.003 104C762.07 104 766.37 105.8 769.903 109.4C773.436 112.933 775.203 117.233 775.203 122.3C775.203 127.233 773.436 131.5 769.903 135.1C766.37 138.633 762.07 140.4 757.003 140.4Z" fill="#99A8F4"/>
</svg>
